<?xml version="1.0" encoding="UTF-8"?> <svg xmlns="http://www.w3.org/2000/svg" id="Layer_1" data-name="Layer 1" viewBox="0 0 1140 1140"><defs><style>.cls-10{fill:#fff}.cls-11{fill:#c6c6c6}.cls-13{fill:#fad6ad}.cls-17{fill:#f7f0dc}.cls-18{fill:#da4327}.cls-19{fill:#f05c2f}.cls-21{fill:#67a3c2}.cls-22{fill:#336f92}.cls-23{fill:#6ba4c1}.cls-24{fill:#b1d3d0}.cls-28{fill:#fce393}</style></defs><path d="M789 1086.33a92.4 92.4 0 0014.27-3c13.54-5.32 24.56-19.26 70.65-59.8 14.81-13 58.3-52.26 78-117.21 22.3-73.46-8.79-104.12-5.85-188 3.58-102 51.38-108.48 78-224.33 10.61-45.99 40.65-176.7-27.29-296.99C931.61 81.56 816.29 46.52 790 39.34 697.63 14.06 622.54 37 561.85 55.5c-53.76 16.41-173.49 53-251.6 161.68-55.11 76.72-22.25 95.73-101.42 256.66-44 89.48-63.26 102-85.82 173.8-13.94 44.36-38.5 118.3-23.4 204.12 4.1 23.32 14.26 77.45 55.37 131.46 54.62 71.76 128.11 96.37 155.84 104.14 119.69 1.64 429.02 5.49 478.18-1.03z" fill="#f3f6fd"></path><path d="M789 1086.33a1485.4 1485.4 0 00146.92-237.51c45.13-91.05 83.89-169.26 101.87-278.1C1054.36 470.4 1081.86 304 981 178.94 900.23 78.86 781.93 60.73 751.77 57.15c-98.52-11.72-173.43 22.65-215.5 42.63C406 161.61 332.75 271.36 305.11 319c-46.23 79.69-37.65 111.35-94 178.63-58.59 69.91-89.88 62-117.54 113.68-53.37 99.68 8 232.18 25.47 270 56.93 123 148 182.85 191.82 206.06 156.68-.69 321.41-.37 478.14-1.04z" fill="#e6ecfa" opacity=".55"></path><path d="M369.51 906l2.76 111.1c.83 5 1.77 15.17-2.76 25.15-7 15.48-24.35 24.14-43.2 21l318 2.1c-1.48.17-21.93 2.08-34-15.72-7.13-10.52-7.42-22.13-7.35-26.2q.91-51.89 1.84-103.77z" fill="#5b3099"></path><path d="M34.93 819h910v107.18a12.32 12.32 0 01-12.33 12.32H47.25a12.32 12.32 0 01-12.32-12.32V819z" fill="#efbeff"></path><path d="M50.85 261.41H929a15.92 15.92 0 0115.92 15.92v575.22h-910V277.33a15.92 15.92 0 0115.92-15.92z" fill="#856ee6"></path><ellipse cx="488.47" cy="903.39" rx="21.6" ry="24.63" fill="#e2def9"></ellipse><path d="M307 1086.36c116.73-.35 235.37 1.47 352.1 1.12.1-.3.4-11.63-3.74-17.44a11 11 0 00-11-4.72l-318-2.1a19.26 19.26 0 00-11.95 5.24c-6.31 5.87-7.24 16.17-7.41 17.9z" fill="#987fe5"></path><path fill="#e1edf9" d="M79.05 313.82h821.74v492.62H79.05z"></path><rect class="cls-10" x="125.32" y="429.72" width="337.84" height="297.35" rx="28.61"></rect><path class="cls-11" d="M441.56 533.42H148a1.5 1.5 0 110-3h293.56a1.5 1.5 0 110 3z"></path><path fill="#c4cace" d="M143.07 648.46l302.34 1.1"></path><path class="cls-11" d="M445.41 651.06L143.07 650a1.51 1.51 0 01-1.5-1.51 1.49 1.49 0 011.5-1.49l302.33 1.1a1.5 1.5 0 110 3z"></path><circle class="cls-11" cx="165.45" cy="627.02" r="12.64"></circle><circle class="cls-11" cx="206.68" cy="627.02" r="12.64"></circle><circle class="cls-11" cx="248.3" cy="627.02" r="12.64"></circle><circle class="cls-11" cx="291.88" cy="627.02" r="12.64"></circle><circle class="cls-11" cx="329.81" cy="627.02" r="12.64"></circle><path class="cls-11" d="M178.12 468a15.65 15.65 0 00-14.34 10.64c-2.09 6.05.31 12.93 5.06 17s11.62 5.13 17.08 1.57a16.31 16.31 0 007.07-16.6A15.71 15.71 0 00178.12 468a1.5 1.5 0 000 3 12.53 12.53 0 0111.39 8.34A13.14 13.14 0 01186 493.4a11 11 0 01-13.69 1.12c-4.18-2.73-7-8-6.15-13a12.65 12.65 0 0112-10.51c1.84-.07 1.89-3.07-.04-3.01z"></path><path class="cls-11" d="M177.54 496.57a28.39 28.39 0 00-27.22 29 1.5 1.5 0 003 0 25.39 25.39 0 0124.22-26c1.93-.1 1.94-3.1 0-3z"></path><path class="cls-11" d="M205.88 525.25a29.84 29.84 0 00-28.36-28.55c-1.93 0-1.93 3 0 3 13.48.3 24.84 12.3 25.36 25.55.07 1.92 3.07 1.93 3 0z"></path><path class="cls-13" d="M375.59 423.68c3.72-.77 9-1.75 15.45-2.52s11.62-1.4 16-1.13c4.6.29 14.41 2 25.84 12.92-8.45-1.72-15.4-2.89-20.22-3.65-8.42-1.32-13.28-1.83-25-3.65-5.12-.8-9.31-1.5-12.07-1.97z"></path><path class="cls-10" d="M751.85 987.79c.34 6.43.89 13.19 1.69 20.22 1.16 10.23 2.71 19.8 4.49 28.64l20.78-2.81q2.24-27.24 4.49-54.48zM744.27 1082.41c-1.07 1.47-3.9 5.35-3.09 10.11a12.26 12.26 0 004.21 7l52.51.84a10.94 10.94 0 003.09-6.45c.48-6.17-5.75-10.9-8.42-12.92-14.57-10.99-40.3-9.54-48.3 1.42zM473.31 1081a12.67 12.67 0 00-4.21 14.6 15.43 15.43 0 002.24 4.49H606.4a20.28 20.28 0 002-8.14 21.47 21.47 0 00-4.78-13.76c-6.5-.19-122.57-3.49-130.31 2.81z"></path><path d="M614.26 736.2c-1.39 7.13-3.52 17.85-6.17 30.89-4.64 22.76-6.39 30.39-10.11 48.29-3.57 17.19-8 38.44-12.92 65.71-3.46 19.12-5.95 32.87-8.42 50.54-.93 6.62-3.16 23.2-4.49 33.13-.95 7-1.72 12.88-2.25 16.85l47.17 5.62 11.23-10.11c1.51-6.59 3.82-16.55 6.74-28.64 6.51-26.91 11.17-44.09 19.1-74.13 14.46-54.84 12.23-48 16.28-62.33 5.37-19 13.55-46 25.27-78.63l18.54 7.3c.1 8.38.45 21.09 1.68 36.51 2.07 26 4.88 37.56 11.79 79.74 6.13 37.4 9.24 56.58 11.23 80.31 1.78 21.09 2.18 38.36 2.25 49.42a153.08 153.08 0 0029.2-12.36A151.37 151.37 0 00790 961.39c1-7.33 2.16-18.21 2.81-31.44 1-19.6.06-31.3-1.13-56.16-1.15-24.33-1.86-48.67-2.8-73-.86-22-1.35-34.95-4.5-53.35-2-11.79-4.38-21.44-6.17-28.08z" fill="#347093"></path><path class="cls-10" d="M694.2 386c-.77 3.39 1.29 6.78-.38 14.6-.65 3-1.24 5.64-3.37 7.86-3.5 3.66-7.34 2.33-9 4.87-3 4.58 5.66 14.89 6.36 15.72 3 3.55 11.46 13.49 25.83 14.23 16.68.85 27.2-11.41 30-15 1.76-2.27 10.35-13.39 7.49-24.33-1-3.81-2.61-4.7-4.49-10.86-2.73-8.95-.73-11.75-2.62-15-6.62-11.25-47.02-4.7-49.82 7.91z"></path><path d="M629.43 517.19c-.19.15-5.85 4.59-13.48 10.67-7.25 5.77-10 8-11.23 9-11 8.58-26.06 12.89-33.7 14-17.33 2.62-31-5.93-58.4-23-22.87-14.28-39.67-30.1-50.54-40.44a378.84 378.84 0 01-14-14 100.36 100.36 0 0117.41-22.46c3.57 3.45 9 8.58 15.72 14.6 21.88 19.55 32.82 29.32 46.61 34.82 9.27 3.69 25 10 41 4.49 5.21-1.78 10.83-4.92 36.5-37.06C627.06 440.5 626.85 438 635 433c15.35-9.38 25.06-5.92 35.94-16.28 9.21-8.77 12.22-20.7 13.3-29.57a355 355 0 0185-8.62 95.49 95.49 0 011.68 20.21c-.06 2.94-1.49 42.05-27.51 68-32.6 32.37-96.25 36.54-113.98 50.45z" fill="#479da2"></path><path d="M678.47 281.51c-.1 1.72.09 4.55 3.75 10.49 6.07 9.87 9.72 8.82 11.6 14.22 3.32 9.53-5.09 21.16-7.11 24-3.34 4.62-4.32 3.88-7.12 8.24-5.21 8.14-5.52 16.58-5.61 20.22s-.32 13 5.24 22.08c8.35 13.67 23.48 16.8 27.33 17.6 17.62 3.65 31.47-4.47 35.19-6.74s16.21-10.46 21.34-25.46c3.82-11.17-.46-14.54 4.87-25.45 3.79-7.76 7.6-9.44 10.11-18.35 1.26-4.48 2.66-9.76.37-15.35-3.2-7.82-11.33-10.66-13.1-11.23a35.18 35.18 0 005.61-6c2.36-3.19 4.38-5.93 3.37-7.86-.82-1.59-3.56-2.35-5.24-1.5-1.48.75-1.49 2.44-2.62 4.87a17.32 17.32 0 01-5.24 6.36 72.93 72.93 0 01-5.24-7.86c-2.29-4-2.53-5.21-4.49-7.86-2.22-3-4.78-6.45-8.61-6.74-1.83-.14-4.91.35-6 2.62a4.85 4.85 0 000 3.74 57.12 57.12 0 00-10.11-7.11c-6.37-3.51-16-8.83-27.33-6.37a30 30 0 00-15.73 9.36c-2.12 2.35-4.95 5.51-5.23 10.08z" fill="#5e1213"></path><path class="cls-17" d="M684.84 338.42c1.31 3 2.63 5.95 5.24 6.74 2.3.7 3.46-1 9-3 3.35-1.23 6.82-2.51 10.49-2.24 2.83.2 5.42 1.92 10.48 5.24 2.61 1.71 4.27 3 11.23 7.86 3.68 2.58 5.57 3.87 7.86 3.74 1.82-.1 3.34-1.06 6.37-3 3.83-2.44 4.61-3.86 7.48-4.87a13.81 13.81 0 014.87-.75 10.77 10.77 0 003.37 6.37c3.69 3.25 8.5 2.45 9.73 2.24 3.54-.59 5.66-2.43 9.74-6 4.35-3.78 6.53-5.68 7.49-9 .17-.61 2-7.12-2.25-11.61-3.36-3.59-8.23-3.41-9.36-3.37a16.33 16.33 0 00-7.11 2.25 26.58 26.58 0 00-7.12 5.24c-1.13-4.28-1.82-7.77-2.24-10.11-.82-4.58-1-6.82-1.87-11.6-.69-3.6-1.41-6.47-1.88-8.24-2.43.47-5.61 1-9.36 1.5a141.85 141.85 0 01-18.74 1.19 139.92 139.92 0 01-22.08-1.87A131.51 131.51 0 01689 301c-.44 2.4-1.16 6-2.24 10.48-.8 3.27-1.1 4.18-1.87 7.49-1.35 5.82-2 8.79-1.88 11.61a22.57 22.57 0 001.83 7.84z"></path><path class="cls-18" d="M634.47 470.46c-.93 3.19-2.11 7.44-3.36 12.47 0 0-2 8.1-3.37 15.16-2.57 13.34-1.39 16.74-3.37 32.58-1.43 11.54-2 9.36-4.49 26.39-1.5 10.31-1.45 12.23-3.37 25.27-2.2 15-3.3 19.48-3.93 21.9a155.51 155.51 0 01-6.18 18.53c-5.51 14.26-7.46 15.06-10.11 23.59a77 77 0 00-3.37 24.71c.38 13.27 4.25 23 7.87 32a131.19 131.19 0 0012.35 23.59 188.78 188.78 0 0017-25.13c4.12-7.3 13.49-24.19 18.44-46.34 1.57-7 .67-5.5 3-48.67.78-14.75 1.9-34.07 3.73-56.76.91-11.25 1.42-17 2.25-24.15a352.55 352.55 0 017.86-43.8 71.51 71.51 0 01-9-1.69 73 73 0 01-21.95-9.65zM705.8 498.09c-2.5 8.26-6.46 21.37-10.11 34.82-5.17 19.11-7.82 28.87-10.1 42.68-.87 5.19-1.89 15.07-3.94 34.82-2.42 23.43-2.7 29.52-2.8 34.26a244.92 244.92 0 001.15 29.76 54.47 54.47 0 007.86 15.72c5.32 7.32 10.23 10 9.55 14.6a8.72 8.72 0 01-6.74 6.74c-4.68 1-8.18-2.56-8.42-2.8a50.16 50.16 0 015 11.79 49.54 49.54 0 011.68 9 712.46 712.46 0 0120.22-6.74c24.45-7.72 36.67-11.59 50-13.47 10-1.42 16-2.44 28.08-4.5 9.17-1.56 14.17-2.5 18-6.73 3.41-3.8 4-8.2 5.06-16.29a93.12 93.12 0 000-23 336.47 336.47 0 00.56-61.21c-1.37-16-3.42-25.2-3.93-46.61-.29-11.83.19-15.3-1.13-23.58-2.49-15.66-7.92-26.62-12.91-36.51-7.37-14.58-11.2-21.92-18.54-24.71-2.92-1.11-9.1-.38-21.34 1.13-21.66 2.66-26.72 4.79-30.32 6.74a48.84 48.84 0 00-12.36 9.54c-1.15 3.54-2.7 8.55-4.52 14.55z"></path><path class="cls-19" d="M720.4 509.33q4.79 6.45 9.55 12.91c7.1-4.45 14.43-9.3 21.9-14.6a457.544 457.544 0 0030.36-23.49q3.72 6 7.45 12a98.55 98.55 0 00.38 13.76c.84 8.73 2.56 14.39 6.18 27.51 1.42 5.17 3.57 13.09 6.17 23 .56 7.5 1.09 17.46 1.13 29.2a359.08 359.08 0 01-2.25 44.38 340.91 340.91 0 01-7.3 41 252.27 252.27 0 01-83.68 21.9 440.94 440.94 0 01-.56-138.15 436.65 436.65 0 0110.67-49.42zM633.36 499.22l16.85-7.3c-1 10-2.47 22.77-4.5 37.62-1.68 12.35-5.67 40-12.91 75.25-5.14 25-12 54.37-21.34 87.05-7.92-7.62-10.55-14.69-11.23-20.22s.6-8.85 2.8-19.65c2.56-12.55 1.92-13.16 3.93-23.59 4.27-22.08 8.37-25.7 12.92-46 2.23-10 1.72-11.25 4.49-30.89 1.73-12.29 4.53-30.21 8.99-52.27z"></path><path d="M953.46 577.28a115 115 0 0034.25 2.8q3.93-19.1 7.87-38.18c-2.11-.79-14.09-5-25.84 1.12-11.56 6.08-18.2 19.79-16.28 34.26z" fill="#85c5c2"></path><path class="cls-13" d="M686.71 423.4a34.13 34.13 0 0036.5 10.11 192 192 0 01.56 30.33c-1.32 22-6 35.77-11.23 55-6.21 22.73-12.92 47.32-16.29 76.94-.42 3.74-.47 23.46-.56 62.89-.05 21.8.09 32.83 7.87 39.32 4.68 3.9 10.89 5.16 30.88 3.36a344.69 344.69 0 0055-9.54q-1.07 10.83-1.69 22.46-.39 7.46-.56 14.6a158.72 158.72 0 01-29.76 16.29c-19.73 8.17-35.32 9.67-65.71 12.35-53 4.68-66.46-1.4-74.13-6.18a64.22 64.22 0 01-13.47-11.23 287.63 287.63 0 0019.65-28.08c5.31-8.63 14.37-23.37 20.22-39.87 6-17.06 6.72-30.56 7.3-56.16s.88-54.71.56-87q7.3-38.46 14.6-76.94z"></path><path class="cls-21" d="M736.69 972.63a41 41 0 0012.91 1.68c5.9-.19 10-1.64 20.78-5.61 9-3.33 16-5.92 19.66-7.31a81.29 81.29 0 014.49 23 59.68 59.68 0 01-14.6 7.86c-4.61 1.7-4.27.92-18 3.93-10.41 2.29-13.82 3.46-19.09 2.25a24.58 24.58 0 01-7.87-3.37c.45-3.38.84-6.94 1.13-10.67.35-4.09.52-8.03.59-11.76z"></path><path class="cls-10" d="M575 997.9q-.53 8.26-1.68 17.41c-.93 7.18-2.08 13.93-3.37 20.21l24.15 6.74 7.86-19.09 6.18-21.34z"></path><path class="cls-22" d="M576.08 1029.91c4.46 5.22 10.57 10.79 16.28 9.54 4.78-1 7.48-6.45 9-5.61s-1 5.21-1.12 12.91a48.81 48.81 0 001.68 12.92c1.25 5.23 2.17 6.12 3.37 10.67a52.91 52.91 0 011.68 14.6c-14.69 1.8-27 2.79-35.94 3.37-24.68 1.61-47.19 3-75.25-1.12-7.91-1.15-14.35-2.46-18.53-3.37a157.9 157.9 0 0037.63-5.06c12.47-3.25 23.11-6.14 34.25-14.6a84.78 84.78 0 0015.15-15.16 95.46 95.46 0 0011.8-19.09z"></path><path class="cls-23" d="M563.72 1024.85c-5.53 1.57-5.69 8.85-10.67 17.41-4.71 8.11-10.85 12.4-19.65 18.53-6.72 4.69-13.54 9.45-23.59 11.8-12.66 3-19.09 2.8-19.09 2.8-4.89-.11-9.78-.89-13.48 2.25-.28.24-3.48 3-2.81 5.06 1.6 4.85 23.79 1.6 30.89.56 18.38-2.7 28.92-4.25 41-11.8 14.24-8.9 20.18-19.64 21.91-23s8.33-16.35 3.32-21.64a8.2 8.2 0 00-7.83-1.97z"></path><path class="cls-22" d="M751.85 1030.47c.16 3.39.37 8.22.56 14 .44 13 .25 14.09 0 15.16-1.84 7.95-6.14 9.1-9 18a36.41 36.41 0 00-1.69 11.79 33.45 33.45 0 0110.67-6.73c1-.39 2.61-1 10.67-2.25 14.07-2.26 16.64-1.75 18.53-1.12 2.4.79 4.22 2 7.87 4.49a65.67 65.67 0 019 7.3 26.62 26.62 0 00-1.12-14c-1.63-4.27-3.23-4.63-5.62-10.11a46.19 46.19 0 01-3.37-12.92c-.57-4.29-.16-5-.56-13.47-.38-8.09-.59-12.14-1.68-12.36-1.61-.32-4.84 5-5.72 10.63-.36 2.28 0 5.12.66 10.71.91 7.4 1.69 12.08 1.69 12.08a29.73 29.73 0 01.56 9.54 25.2 25.2 0 01-.84 3.93c-3.48 0-7.24 0-11.23.28-3.81.26-7.37.65-10.67 1.13-.27-4-.45-7.16-.57-9.27-.43-8-.4-10-.84-15.44-.55-6.87-.74-5.49-.84-8.71-.21-6.63.68-9.76-1.34-11.59-.74-.7-2.17-1.46-5.12-1.07z"></path><path class="cls-23" d="M758 1027.66c2.13.15 5.43.36 9.55.56 2.54.13 3.43.15 5 .28 6.1.51 9.15.77 10.58 2.43 1.64 1.89.57 4.35.09 8.8-.79 7.28 1.16 8.87 2.25 19.66a104.69 104.69 0 01.28 16.85l-29.77 1.4a60.68 60.68 0 01-1.4-10.67c-.36-8.47 1.38-9.77.84-17.41-.47-6.74-2-8.3-1.12-13.2a22.6 22.6 0 013.7-8.7z"></path><path class="cls-17" d="M465.73 455.41a101.36 101.36 0 00-11.8-12.35c-6.57-5.82-13.5-11.95-24.42-15.44a55.77 55.77 0 00-19.38-2.53c-4.68.22-10.33 1.64-21.62 4.49-7.95 2-11.44 3.18-18.25 4.21a109 109 0 01-10.95 1.13 19.08 19.08 0 006.18 5.61c2.7 1.52 5.61 2.21 17.41 2 7.69-.16 9.91-.52 17.4-.56 6.38 0 9.61 0 11.52.56 4.08 1.28 5.5 3.22 14.32 11.23 4.47 4.06 7.6 6.9 10.95 9.55a97.56 97.56 0 0015.72 10.1z"></path><path class="cls-24" d="M715.91 411.05c7.83-3.36 14.29-6.51 19.09-9 8.82-4.53 14.79-7.64 21.91-12.91a111.26 111.26 0 0012.35-10.67 378.25 378.25 0 008.42 19.09q3.35 7 6.74 13.48a206.32 206.32 0 0122.47 6.74c10.33 3.75 15.61 5.72 21.34 10.11 5.37 4.12 8.49 8.22 12.91 14 5.19 6.82 6.6 10.15 12.36 19.65 3.28 5.42 2.14 3.22 16.28 24.71 4.94 7.51 9.71 14.76 15.73 24.15 4.48 7 8.14 12.81 10.67 16.85a47.91 47.91 0 0115.16 3.37c4.39 1.76 5.93 3.16 9.55 4.49 6.05 2.22 10.23 1.42 18 1.12 10.53-.41 20.31.67 39.87 2.81 3.46.38 6.26.73 7.95.95l-20.31 42.29c-5.53.76-13.45 1.78-23 2.81-12.83 1.38-19.25 2.07-25.83 2.24-11.89.32-23.21.63-36.51-3.36-12.5-3.76-20.91-9.57-28.08-14.61-11.3-7.94-17.86-15.32-29.2-28.07A369.5 369.5 0 01796.22 506 404.21 404.21 0 01776 473.42q-20.29 3.58-41.56 6.74-12.2 1.81-24.15 3.37a62.13 62.13 0 006.18-22.53c.35-4.61-.22-4.28 0-12.92.31-12.06 1.49-15.12 1.12-23.58a84.53 84.53 0 00-1.68-13.45zM682.78 390.27c1.06 3.9 1.77 7.18 2.24 9.55 1.94 9.73 1.7 13.77 4.5 19.09a27.06 27.06 0 005.05 6.74c-4.51 6.2-8.07 11.61-10.67 15.72a187.49 187.49 0 00-12.35 21.91 155.72 155.72 0 00-6.18 15.16 95.64 95.64 0 01-34.26-9.55c3.79-18.32 4.27-22.38 3.93-22.46-.61-.15-3.34 13-10.11 30.32-3.36 8.61-5.6 12.79-15.16 32-4 8-10 20.18-17.41 35.38a74.89 74.89 0 01-20.21 11.23c-6.78 2.49-13.18 4.84-20.78 3.94-5-.6-8.16-2.3-23.59-13.48C513.23 535.28 506 530 499.7 524.49c-3.69-3.27-9.25-8.77-20.21-19.66-7.24-7.18-13.22-13.19-17.41-17.41 1.84-4.55 4.05-9.45 6.74-14.6 2.59-5 5.26-9.47 7.86-13.48 3.63 2.28 8.87 5.57 15.16 9.55 2.77 1.75 15.32 9.69 32.57 20.78 4.42 2.84 10.36 6.66 17.41 11.23a12.67 12.67 0 0112.36-2.24c3.57-2.44 8.93-6.23 15.16-11.24 13.89-11.15 17.17-16.33 34.82-33.13 18-17.16 26.64-23.22 31.44-26.39 8.5-5.61 12.74-8.42 18-10.11 8.1-2.62 13.61-2.08 19.65-7.3a28 28 0 006.18-7.86 29 29 0 003.35-12.36z"></path><path d="M711.92 336.2c-.46 0-.91 0-1.34-.05l-4.29-.26a4.78 4.78 0 01-2.13-.47 3.32 3.32 0 01-1.34-3.56 8.39 8.39 0 011.85-3.37c.75-1 1.54-1.91 2.31-2.83a65.65 65.65 0 004.37-5.67 18.07 18.07 0 003.43-10h.5a18.63 18.63 0 01-3.51 10.25 65.15 65.15 0 01-4.41 5.71c-.76.92-1.55 1.87-2.3 2.82a8 8 0 00-1.75 3.16 2.85 2.85 0 001.1 3 4.46 4.46 0 001.91.4l4.29.26a8.22 8.22 0 003.48-.3 2.57 2.57 0 001.74-2.52l.5-.07a3 3 0 01-2.05 3.05 6.2 6.2 0 01-2.36.45z" fill="#231f20"></path><path class="cls-10" d="M472.35 488.1c3.09 8.43 10.31 14.07 17 19.59l24.9 20.54 24.91 20.54a25.47 25.47 0 005.43 3.85 11.08 11.08 0 006.82.64 43.44 43.44 0 006.48-2c1.91-.68 3.81-1.4 5.69-2.18 8-3.31 15.93-7.95 19.86-16 .71-1.44-1.45-2.71-2.15-1.26-3.33 6.8-9.76 11-16.46 14-3.49 1.57-7.1 2.88-10.71 4.1-2.29.77-4.81 1.55-7.22.9-2.16-.57-3.91-2.11-5.59-3.49l-47.13-38.87c-7.18-5.92-16.09-11.91-19.43-21-.55-1.49-3-.85-2.41.67zM749.05 515.71a330.4 330.4 0 00-31.79 141.75 323.61 323.61 0 002.66 41.16c.2 1.58 2.7 1.6 2.5 0A327.87 327.87 0 01736.05 555a320.11 320.11 0 0115.16-38c.68-1.45-1.47-2.72-2.16-1.26zM778.55 503.93a128.81 128.81 0 0113.59 49.71 130.35 130.35 0 01.12 14.66c-.08 1.6 2.42 1.6 2.5 0a131.35 131.35 0 00-8-51.91 134.68 134.68 0 00-6-13.72c-.73-1.44-2.89-.17-2.16 1.26zM781.12 471.94c2.29 11.36 8.71 21.2 15.07 30.68s12.8 19 19.82 28.08c13.73 17.7 30.25 33.75 51.31 42.28 11.37 4.61 23.76 6.79 36 5.31.47-.06.48-.81 0-.75-22 2.65-43.7-6.46-60.63-20-17.7-14.16-30.85-33-43.4-51.64-7.13-10.59-14.88-21.4-17.45-34.15-.09-.48-.82-.28-.72.2zM696.26 268.26c-4.19-1.56-8 1.55-9.7 5.27-2 4.44-.71 9 2.71 12.33 3.81 3.71 9.23 5.39 14.34 6.31a76.85 76.85 0 0021.68.6c4-.42 8.26-.92 12 .74 3.05 1.34 5.67 4 5.73 7.53a.38.38 0 00.75 0c-.08-5-4.77-8.37-9.33-9.14a35.56 35.56 0 00-9.61.17 79.1 79.1 0 01-10.55.46c-6.08-.19-12.5-.9-18.18-3.24-4.56-1.88-9.71-5.67-9.79-11.12-.06-4.89 4.25-11.23 9.76-9.18.45.16.64-.56.19-.73zM678.46 352.54c-3.13 10.37 2.67 22 12 27a20.71 20.71 0 008.59 2.43c.49 0 .48-.72 0-.75-13.43-.78-23.77-15.66-19.88-28.52.14-.46-.59-.66-.73-.2zM727 757q4.83 42.24 10.08 84.44T748 925.59q3.19 23.65 6.53 47.29c.23 1.59 2.63.91 2.41-.66q-5.91-41.94-11.39-83.94t-10.47-83.88q-2.83-23.7-5.55-47.42c-.18-1.58-2.68-1.6-2.5 0zM675.46 760.68c-7.76 11-12.81 23.55-16.73 36.34-4.22 13.76-7.48 27.82-11 41.76q-11.46 45-22.93 89.9l-13 50.75a1.25 1.25 0 002.41.67q11.46-45 22.94-89.9l11.34-44.47c3.63-14.21 7-28.5 11-42.6 4.12-14.48 9.34-28.81 18.09-41.19.93-1.32-1.24-2.57-2.16-1.26zM548.56 1044.88l8.53.23-.32-.19a24.11 24.11 0 012.65 10.82.38.38 0 00.75 0 24.82 24.82 0 00-2.76-11.2.35.35 0 00-.32-.18l-8.53-.23a.38.38 0 000 .75zM532.85 1063c6.27-.6 10.95 8.22 6.79 13-.31.36.22.89.53.53 3.57-4.13 1.36-10.9-3.12-13.41a7.24 7.24 0 00-4.2-.9c-.48 0-.48.8 0 .75zM510.14 1071.88a16.76 16.76 0 018.92 10.9.38.38 0 00.73-.2 17.51 17.51 0 00-9.27-11.35c-.44-.2-.82.44-.38.65z"></path><path class="cls-10" d="M557.45 1046.87c5.09-3.38 11.78-1.4 16 2.47 4.9 4.47 6.55 11.45 7.56 17.75.26 1.56.51 3.13.68 4.7a7.38 7.38 0 01-.5 4.48c-2 3.43-6.93.64-9.34-.76a37.93 37.93 0 01-18.68-31c0-.48-.77-.48-.75 0a38.7 38.7 0 0019.69 32.06c2.4 1.32 6 3.21 8.59 1.37 2.44-1.72 1.88-5.18 1.53-7.71-1-7-2.21-14.8-7.14-20.26-4.38-4.84-12.21-7.56-18-3.7-.4.27 0 .92.38.65zM775.79 1039a35.72 35.72 0 00-16.54-1.54c-.43.06-.32.73.1.73h13.84a.38.38 0 000-.75h-13.84l.1.74a34.84 34.84 0 0116.14 1.55c.45.15.65-.57.2-.73zM766.45 1050.87l-6 .17.1.73a21.49 21.49 0 0113.21.8c.45.17.64-.55.2-.73a22.16 22.16 0 00-13.61-.79.38.38 0 00.1.74l6-.17a.38.38 0 000-.75zM773.21 1066.89a13.49 13.49 0 00-13.21 3.29.37.37 0 00.37.62 29.56 29.56 0 0112.81-1.15c.48.06.48-.69 0-.75a29.86 29.86 0 00-13 1.18l.36.63a12.71 12.71 0 0112.48-3.09.38.38 0 00.2-.73z"></path><path class="cls-10" d="M782 1037a58.15 58.15 0 00-27.14 13.85c-.36.33.17.86.53.53a57.31 57.31 0 0126.81-13.65c.47-.1.27-.82-.2-.73z"></path><path class="cls-10" d="M764.06 1042.28a94 94 0 016.23 29.2c0 .48.77.48.75 0a94.69 94.69 0 00-6.26-29.4c-.17-.45-.89-.25-.72.2z"></path><path class="cls-10" d="M773.3 1064.33c-8.53-1.38-17.22 5.31-18 13.91 0 .48.7.47.75 0 .78-8.08 9.08-14.49 17.1-13.19.47.08.67-.64.2-.72z"></path><path class="cls-10" d="M768.54 1063.06a32.73 32.73 0 0120.11 15.3.38.38 0 00.65-.38 33.5 33.5 0 00-20.56-15.64.37.37 0 00-.2.72zM550.79 1062.21a63.87 63.87 0 00-24.83 2 .37.37 0 00.2.72 63.41 63.41 0 0124.63-2c.48.06.48-.7 0-.75z"></path><path class="cls-10" d="M545.94 1059.83L526 1075.91c-.37.31.16.83.53.53l19.93-16.08c.37-.31-.16-.83-.53-.53zM514.59 1070.42a8.34 8.34 0 01-2 16.52.38.38 0 000 .75 9.09 9.09 0 002.18-18c-.47-.11-.67.62-.2.72zM489.66 1074.27a13.06 13.06 0 012.46 17.25c-.28.39.37.77.64.38a13.8 13.8 0 00-2.57-18.16c-.38-.29-.91.23-.53.53zM621.53 594.89L603.6 648.1l-4.45 13.18a107.73 107.73 0 00-3.76 12.83 34.91 34.91 0 00-.45 12.56 48.88 48.88 0 003.3 10.61c3 7.32 7.22 15.18 5.46 23.33-.24 1.09 1.25 2.28 2.09 1.21a227.09 227.09 0 0026.61-43.05q3.08-6.54 5.74-13.25c.59-1.49-1.82-2.14-2.41-.66a224.46 224.46 0 01-23.3 43.71q-4 5.88-8.41 11.49l2.09 1.21c1.55-7.2-1-14.08-3.78-20.64a100.15 100.15 0 01-4-10.29 30.23 30.23 0 01-1.11-12.18 65.09 65.09 0 013.23-13c1.45-4.37 2.94-8.72 4.41-13.08l9-26.6 10.08-29.9c.51-1.53-1.9-2.19-2.41-.67z"></path><path class="cls-21" d="M568.78 972.06a173.5 173.5 0 00-4.5 19.1c-.43 2.49-.81 4.92-1.12 7.3a40.41 40.41 0 0010.67 6.18c5.84 2.26 11.09 2.47 21.34 2.8 7.58.25 11.47.36 16.29-.56 5.71-1.08 12-2.28 15.72-7.3 1.06-1.42 1.83-4.13 3.37-9.55a87.78 87.78 0 002.81-13.47 79.41 79.41 0 00.56-9 35.58 35.58 0 01-14 11.23c-9.25 4-17.75 2.63-27 1.13a84.35 84.35 0 01-24.14-7.86z"></path><rect class="cls-10" x="97.75" y="329.86" width="124.67" height="26.92" rx="13.46"></rect><rect class="cls-10" x="231.6" y="329.86" width="124.67" height="26.92" rx="13.46"></rect><rect class="cls-10" x="365.25" y="329.86" width="124.67" height="26.92" rx="13.46"></rect><path d="M799.85 1060.85l17.43-7.81a10.69 10.69 0 005.87-11.53q-1.71-10.37-3.41-20.73a11 11 0 013.37-9.91l18.71-16.75a11 11 0 003.42-9.55q-.79-6.15-1.61-12.29a11.06 11.06 0 012.6-8.72l10.43-11.8a11.07 11.07 0 002.48-9.45l-7.59-38a11 11 0 013.17-10.16l25.62-23.81a11 11 0 003.21-9.91l-3.36-19.14a10.86 10.86 0 013.87-10.46c1.87-1.47 12.08-8.63 14-10.09 9.44-25 11.34-46.38 20.78-71.38-1-6.46.3-27.64-.75-34.1-1.71-10.57-17.68 2.81-21.15 12.87Q841.93 887.8 787 1047.5c-3 8.6 5 16.87 12.85 13.35z" fill="#f8ac06"></path><path d="M966.38 454.36c-72-28.17-152.85 23.25-170.17 94.43-14.61 60.05 21.35 112.27 26.94 120.14a54.83 54.83 0 0110.26 25.21 56.34 56.34 0 01-1.57 22.91l-92.28 300.47q3.08 20.91 6.13 41.82a30.56 30.56 0 005.84 13.92c1.32 1.72 4.6 5.49 14.13 9.64a77.78 77.78 0 0025.32 6.19L894.09 761.7c10.44-32 15.08-42.39 16.62-41.93s.5 11.7-5.76 44l26 7.5c.74-7 3.56-25.3 17.33-40.61a61.75 61.75 0 0117.89-13.76c7.59-3.22 65.43-29 82-93.15 17.3-66.68-17.79-144.34-81.79-169.39zm7.47 70.71c-4.62 18.56-22.33 29.58-39.56 24.61s-27.47-24-22.85-42.61 22.33-29.58 39.56-24.61 27.46 24.05 22.85 42.61z" fill="#fad350"></path><path class="cls-28" d="M867.45 711.71l-98.33 317a3.21 3.21 0 01-4.13 2.22l-6.59-2.37a3.57 3.57 0 01-2.06-4.44l98.34-317a3.21 3.21 0 014.12-2.22l6.59 2.37a3.59 3.59 0 012.06 4.44zM954.21 686.44L842 650.81c-5.59-1.77-8.79-8.09-7.14-14.12l6.36-23.22c1.65-6 7.52-9.47 13.11-7.69l112.2 35.62c5.59 1.78 8.79 8.1 7.14 14.12l-6.35 23.23c-1.65 6.02-7.52 9.47-13.11 7.69z"></path><path class="cls-17" d="M1022.87 509.15a5 5 0 00-4.13 3.9 5.11 5.11 0 002.57 5.31 5.8 5.8 0 004.13.38c.55-.12 1.32-.33 4.94-2.73 2.34-1.53 4.73-3.23 4.73-3.23a10.6 10.6 0 01-.38 6.26c-.71 1.8-1.93 3-4.36 5.53-2.06 2.11-2.64 2.32-4.28 4.27-2.37 2.81-2.55 4-2.55 4.75A4.61 4.61 0 001025 537a4.84 4.84 0 004.09 1 31 31 0 00-4.87 3.61c-2.59 2.35-2.83 3.4-2.88 4a4.93 4.93 0 001.06 3.21 6.37 6.37 0 003.13 2.33c-.12.07-2.64 1.57-2.47 3.5.19 2.27 3.94 3.16 4.45 3.29.85.2 2.15.37 7.75-1.17a48.64 48.64 0 008-2.79c3.79-1.76 4.44-2.74 4.72-3.24a5.77 5.77 0 00-3.27-8.37 6.28 6.28 0 006.5-7.66c-.13-1-.44-3.21-2-4-1.16-.6-2.08.06-5.05.32a22.41 22.41 0 01-3.65 0 18 18 0 005.9-4.05c1.45-1.49 2.73-2.81 3.07-5a6.5 6.5 0 00-1.32-5.24 6.21 6.21 0 00-3.9-2 7.37 7.37 0 00-5.24 1.32c-2.47-2.5-2.76-4.06-2.46-5.06s1.33-1.26 1.66-2.54a4.48 4.48 0 00-1.88-4.39c-2.48-1.73-6 .08-6.56.36-1.27.65-1.41 1.14-4 2.91-1.22.79-2.23 1.41-2.91 1.81z"></path><path class="cls-10" d="M45.55 282.58l2.24 192.06L50 665.72l1.26 107.79a1.25 1.25 0 002.5 0l-2.23-192.06-2.22-191.08-1.26-107.79a1.25 1.25 0 00-2.5 0zM51.29 798.63V818a1.25 1.25 0 002.5 0v-19.37a1.25 1.25 0 00-2.5 0z"></path><path class="cls-10" d="M46.75 284.63l161.83-2.13 161-2.12 90.82-1.2a1.25 1.25 0 000-2.5l-161.83 2.14-161 2.12-90.82 1.19a1.25 1.25 0 000 2.5zM386.22 954a147.07 147.07 0 01-3.75 82.73 143 143 0 01-9.54 21.7c-.77 1.42 1.39 2.68 2.16 1.26a149.41 149.41 0 0017.39-82.74 146.49 146.49 0 00-3.85-23.62 1.25 1.25 0 00-2.41.67zM319.65 1081.21c-1.27-4.48 2.86-8.15 6.78-9.27 4.9-1.39 10.41-.71 15.44-.62l33.69.56 19 .31a1.25 1.25 0 000-2.5l-36.44-.6-18.22-.31c-5.28-.08-11.05-.69-16 1.44-4.44 1.89-8 6.69-6.6 11.66a1.25 1.25 0 002.41-.67zM918 299.94l-.41 56.49-.41 56.49-.23 32a1.25 1.25 0 002.5 0l.41-56.48.41-56.49.23-32a1.25 1.25 0 00-2.5 0zM910 461.39a119.33 119.33 0 00-46.11 18.05 126.58 126.58 0 00-35.44 34.81A115.29 115.29 0 00810 560.86a125.08 125.08 0 002.87 51.76 122 122 0 0023.66 46q2.07 2.49 4.28 4.87c2.19 2.36 5.72-1.18 3.53-3.54a114.76 114.76 0 01-24.91-42.83 121.08 121.08 0 01-5.3-49.58 110.57 110.57 0 0115.49-45.88 119.58 119.58 0 0132.28-34.82 117 117 0 0143.5-19.54c2-.42 3.94-.79 5.93-1.11a2.51 2.51 0 001.74-3.07 2.56 2.56 0 00-3.07-1.75zM886.89 738l-19.28 60.37-19.28 60.37-19.28 60.36-19.28 60.37-19.19 60.07-2.45 7.66c-1 3.07 3.85 4.38 4.83 1.33l19.28-60.37 19.28-60.37 19.28-60.37 19.28-60.37L889.27 747l2.45-7.66c1-3.07-3.85-4.38-4.83-1.33zM779 408.65a204.53 204.53 0 01-46.18 17.12q-6.79 1.62-13.69 2.77c-1.58.27-.91 2.68.67 2.41a207.64 207.64 0 0047.63-14.07q6.52-2.82 12.83-6.07c1.43-.74.17-2.9-1.26-2.16zM672.69 412.73l7.54 23.27c.49 1.53 2.91.87 2.41-.66l-7.54-23.26c-.5-1.52-2.91-.87-2.41.67z"></path></svg> 