<?xml version="1.0" encoding="UTF-8"?>
<svg width="558px" height="522px" viewBox="0 0 558 522" version="1.1" xmlns="http://www.w3.org/2000/svg" xmlns:xlink="http://www.w3.org/1999/xlink">
    <title>banner-img</title>
    <defs>
        <polygon id="path-1" points="0.000642595167 0.913 532.615 0.913 532.615 467 0.000642595167 467"></polygon>
        <linearGradient x1="50%" y1="0%" x2="79.4131237%" y2="104.4492%" id="linearGradient-3">
            <stop stop-color="#596069" offset="0%"></stop>
            <stop stop-color="#6D7278" offset="100%"></stop>
        </linearGradient>
        <linearGradient x1="75.6123631%" y1="9.53753521%" x2="44.2833919%" y2="88.020388%" id="linearGradient-4">
            <stop stop-color="#6236FF" offset="0%"></stop>
            <stop stop-color="#8664FF" offset="100%"></stop>
        </linearGradient>
        <linearGradient x1="50%" y1="0%" x2="79.1550881%" y2="104.4492%" id="linearGradient-5">
            <stop stop-color="#FFFFFF" offset="0%"></stop>
            <stop stop-color="#FFFFFF" offset="100%"></stop>
        </linearGradient>
    </defs>
    <g id="Page-1" stroke="none" stroke-width="1" fill="none" fill-rule="evenodd">
        <g id="Sign-In-Design01" transform="translate(-80.000000, -312.000000)">
            <g id="banner-img" transform="translate(346.500000, 573.000000) scale(-1, 1) translate(-346.500000, -573.000000) translate(80.000000, 312.000000)">
                <g transform="translate(266.500000, 261.000000) scale(-1, 1) translate(-266.500000, -261.000000) ">
                    <g id="Group-3" transform="translate(0.000000, 53.035000)">
                        <mask id="mask-2" fill="white">
                            <use xlink:href="#path-1"></use>
                        </mask>
                        <g id="Clip-2"></g>
                        <path d="M499.7145,255.163 C498.0645,257.813 496.4195,260.418 494.6645,263.013 C479.3145,286.068 460.2645,308.213 439.1695,328.568 C438.2145,329.513 437.2145,330.468 436.2195,331.413 C433.2145,334.263 430.1145,337.118 427.0145,339.863 C421.6695,344.768 416.1645,349.513 410.5645,354.063 C407.6145,356.563 404.5695,359.018 401.5645,361.413 C366.6695,389.018 329.3695,413.168 292.6145,431.363 C281.2195,437.068 269.8195,442.163 258.5695,446.563 C199.8645,469.818 145.2195,475.268 107.5195,452.213 C95.5145,444.913 85.2645,434.713 77.1145,421.268 C75.8145,419.113 74.5145,416.963 73.2145,414.818 C61.1695,394.663 49.6645,374.418 39.5645,354.063 C37.1645,349.313 34.9195,344.618 32.7195,339.863 C-3.9305,261.113 -17.8855,181.413 34.0645,103.013 C54.2645,72.518 87.4195,48.768 127.2145,31.963 C138.5695,27.118 150.4145,22.913 162.7195,19.263 C168.7695,17.363 174.8645,15.713 181.1145,14.218 C188.9695,12.218 196.9645,10.468 205.0645,8.963 C211.2695,7.768 217.4645,6.718 223.7145,5.813 C226.3145,5.468 228.9145,5.118 231.5145,4.763 C249.9645,2.418 268.6645,1.113 287.2695,0.968 C289.7145,0.913 292.1645,0.913 294.5695,0.913 C305.8195,0.968 316.9645,1.413 327.9645,2.318 C330.9145,2.518 333.8645,2.768 336.8145,3.113 C392.9645,8.568 444.4645,24.663 479.4645,51.368 C487.1145,57.218 493.9695,63.513 499.9145,70.368 C501.0195,71.618 502.0695,72.868 503.0645,74.163 C503.4145,74.563 503.7195,74.963 504.0645,75.368 C511.3145,84.463 517.1145,93.868 521.4695,103.468 C543.7195,151.918 530.7145,205.363 499.7145,255.163" id="Fill-1" fill-opacity="0.095197771" fill="#6236FF" mask="url(#mask-2)"></path>
                    </g>
                    <g id="Group-18" transform="translate(6.801500, 0.001500)">
                        <path d="M379.739,454.637 C366.249,468.777 356.644,488.997 371.154,500.977 C387.359,514.352 420.784,511.247 438.064,486.012 C449.109,469.892 454.954,444.407 442.719,430.112 C432.244,417.872 396.289,437.287 379.739,454.637" id="Fill-4" fill="#F0ECFF"></path>
                        <path d="M183.5645,450.95 C180.2145,451.095 176.8145,451.2 173.5145,451.2 C173.1645,451.2 172.9145,451.495 172.9145,451.85 C172.9145,452.145 173.1645,452.45 173.5145,452.45 C176.8645,452.45 180.2145,452.345 183.6145,452.2 C183.9645,452.2 184.2145,451.895 184.2145,451.55 C184.1645,451.25 183.8645,450.95 183.5645,450.95 M163.5145,451.05 C160.1145,450.95 156.7145,450.75 153.5145,450.55 C153.0645,450.5 152.8645,450.75 152.8145,451.095 C152.8145,451.45 153.0645,451.75 153.4145,451.8 C156.6645,452 160.0645,452.2 163.4645,452.3 C163.8145,452.3 164.1145,452.05 164.1145,451.695 C164.1145,451.35 163.8645,451.05 163.5145,451.05 M203.5645,449.5 C200.2145,449.845 196.8645,450.15 193.5645,450.4 C193.2145,450.4 192.9645,450.695 192.9645,451.05 C193.0145,451.4 193.2645,451.65 193.6145,451.65 L193.6645,451.65 C196.9645,451.4 200.3145,451.095 203.6645,450.75 C204.0145,450.695 204.2645,450.4 204.2645,450.045 C204.2145,449.7 203.9145,449.445 203.5645,449.5 M143.5145,449.55 C140.2145,449.195 136.8645,448.7 133.6145,448.145 C133.2645,448.1 132.9645,448.3 132.8645,448.65 C132.8145,448.995 133.0645,449.3 133.4145,449.35 C136.6645,449.95 140.0145,450.4 143.3645,450.8 L143.4645,450.8 C143.7645,450.8 144.0145,450.6 144.0645,450.245 C144.1145,449.9 143.8645,449.595 143.5145,449.55 M223.4645,446.85 C220.0645,447.345 216.7645,447.85 213.5145,448.3 C213.1645,448.345 212.9145,448.65 212.9645,448.995 C213.0145,449.3 213.3145,449.55 213.6145,449.55 L213.6645,449.55 C216.9145,449.1 220.2645,448.595 223.6645,448.05 C223.9645,448 224.2145,447.7 224.1645,447.345 C224.1145,447 223.8145,446.8 223.4645,446.85 M123.8145,446.15 C120.5145,445.4 117.2645,444.55 114.1145,443.65 C113.7645,443.55 113.4145,443.7 113.3145,444.05 C113.2145,444.395 113.4145,444.75 113.7645,444.845 C116.8145,445.695 119.9145,446.55 123.0645,447.3 C123.2145,447.345 123.3645,447.345 123.5145,447.4 L123.6645,447.4 C123.7645,447.4 123.8645,447.345 123.9645,447.3 L124.0145,447.25 C124.1645,447.2 124.2145,447.05 124.2645,446.895 C124.3145,446.6 124.1145,446.25 123.8145,446.15 M243.1645,443.1 C239.9145,443.795 236.5645,444.5 233.4145,445.1 L233.3145,445.1 C232.9645,445.15 232.7645,445.445 232.8145,445.8 C232.8645,446.095 233.1645,446.295 233.4645,446.295 L233.5645,446.295 C235.8145,445.895 238.1145,445.445 240.4145,444.95 C241.4145,444.75 242.4145,444.55 243.4145,444.3 C243.7645,444.25 243.9645,443.9 243.9145,443.55 C243.8145,443.25 243.5145,443 243.1645,443.1 M262.6645,438.345 C259.5145,439.195 256.2645,440.045 252.9645,440.845 C252.6145,440.95 252.4145,441.25 252.5145,441.6 C252.5645,441.895 252.8145,442.095 253.1145,442.095 C253.1645,442.095 253.2145,442.095 253.2645,442.05 C256.5645,441.25 259.8645,440.4 263.0145,439.595 C263.3145,439.5 263.5145,439.15 263.4645,438.795 C263.3645,438.5 263.0145,438.3 262.6645,438.345 M104.6145,440.445 C103.5145,440.045 102.4645,439.645 101.3645,439.195 C99.3145,438.395 97.3645,437.5 95.4145,436.6 C95.1145,436.45 94.7145,436.6 94.5645,436.895 C94.4145,437.2 94.5645,437.6 94.8645,437.745 C96.9645,438.75 99.1645,439.645 101.3645,440.55 C102.2645,440.95 103.2145,441.295 104.1645,441.65 L104.4145,441.65 C104.6645,441.65 104.9145,441.495 105.0145,441.25 C105.1145,440.95 104.9645,440.6 104.6145,440.445 M281.9145,432.745 C281.2645,432.945 280.6145,433.195 279.9145,433.395 C277.4645,434.15 274.9145,434.95 272.3645,435.695 C272.0145,435.8 271.8145,436.095 271.9145,436.45 C272.0145,436.75 272.2645,436.895 272.5145,436.895 L272.7145,436.895 C275.2145,436.15 277.7645,435.4 280.1645,434.645 C280.9145,434.395 281.6145,434.195 282.3145,433.95 C282.6145,433.85 282.8145,433.5 282.7145,433.145 C282.6145,432.85 282.2645,432.65 281.9145,432.745 M86.5145,432 L86.1645,431.75 C83.3645,430.15 80.6645,428.45 78.0645,426.65 C77.8145,426.45 77.4145,426.55 77.2145,426.85 C77.0145,427.095 77.1145,427.5 77.3645,427.7 C79.9645,429.445 82.7145,431.2 85.5145,432.85 L85.9145,433.1 C86.0145,433.145 86.1145,433.145 86.2145,433.145 C86.4645,433.145 86.6645,433.05 86.7645,432.85 C86.9645,432.545 86.8145,432.145 86.5145,432 M300.9145,426.295 C297.7645,427.45 294.5645,428.55 291.4645,429.645 C291.1145,429.75 290.9645,430.1 291.0645,430.4 C291.1645,430.695 291.3645,430.845 291.6645,430.845 C291.7145,430.845 291.7645,430.845 291.8645,430.8 C295.0145,429.75 298.1645,428.595 301.3145,427.45 C301.6645,427.345 301.8145,427 301.7145,426.65 C301.5645,426.295 301.1645,426.15 300.9145,426.295 M320.4145,419.3 C320.2645,418.95 319.9145,418.795 319.6145,418.95 C316.5645,420.2 313.4145,421.495 310.2645,422.7 C309.9645,422.85 309.8145,423.195 309.9145,423.55 C310.0145,423.795 310.2645,423.95 310.5145,423.95 C310.5645,423.95 310.6645,423.9 310.7645,423.9 C313.9145,422.65 317.0645,421.35 320.0645,420.1 C320.4145,419.95 320.5645,419.595 320.4145,419.3 M70.0645,420.695 C68.9145,419.8 67.7645,418.85 66.7145,417.945 C65.2645,416.695 63.9145,415.4 62.5645,414.15 C62.3145,413.9 61.9145,413.9 61.6645,414.15 C61.4145,414.395 61.4145,414.8 61.6645,415.045 C63.2645,416.55 64.9145,418.05 66.6645,419.5 C67.5145,420.245 68.3645,421 69.2645,421.695 C69.3645,421.8 69.5145,421.85 69.6645,421.85 C69.8645,421.85 70.0145,421.75 70.1645,421.6 C70.3645,421.35 70.3145,420.95 70.0645,420.695 M338.8145,411.095 C338.6645,410.75 338.2645,410.645 337.9645,410.8 C335.0645,412.145 332.1145,413.55 328.8145,415 C328.5145,415.1 328.3645,415.5 328.5145,415.8 C328.6145,416.05 328.8645,416.2 329.0645,416.2 C329.1645,416.2 329.2645,416.15 329.3145,416.095 C332.6145,414.645 335.6145,413.3 338.5145,411.895 C338.8145,411.75 338.9645,411.4 338.8145,411.095 M55.6645,406.895 C53.4645,404.395 51.3645,401.75 49.4645,399.1 C49.2645,398.795 48.8645,398.75 48.5645,398.95 C48.3145,399.15 48.2645,399.55 48.4645,399.8 C50.2145,402.3 52.1645,404.75 54.1645,407.095 C54.3645,407.3 54.5145,407.545 54.7145,407.745 C54.8145,407.85 55.0145,407.945 55.1645,407.945 C55.3145,407.945 55.4645,407.9 55.6145,407.8 C55.8145,407.6 55.8645,407.345 55.7645,407.095 C55.7645,407 55.7145,406.945 55.6645,406.895 M356.7645,402.05 C356.6145,401.75 356.2145,401.65 355.9145,401.8 C353.0645,403.345 350.0145,404.9 347.0145,406.4 C346.7145,406.55 346.6145,406.85 346.7145,407.095 C346.6645,407.145 346.7145,407.2 346.7145,407.25 C346.8145,407.45 347.0645,407.6 347.2645,407.6 C347.3645,407.6 347.4645,407.545 347.5645,407.5 C347.8145,407.345 348.1145,407.25 348.3645,407.095 C351.1645,405.75 353.8645,404.3 356.5145,402.9 C356.8145,402.745 356.9145,402.345 356.7645,402.05 M374.2645,392.2 C374.1145,391.895 373.7145,391.8 373.4145,391.945 C372.8645,392.25 372.3645,392.6 371.8145,392.9 C369.5145,394.3 367.1645,395.645 364.7145,397 C364.4145,397.145 364.3145,397.545 364.5145,397.85 C364.6145,398.05 364.8145,398.145 365.0645,398.145 C365.1645,398.145 365.2645,398.145 365.3645,398.1 C368.3145,396.4 371.2645,394.7 374.0645,393.05 C374.1145,393 374.1645,392.945 374.2145,392.9 C374.4145,392.7 374.4145,392.45 374.2645,392.2 M44.0645,390.695 C42.3645,387.85 40.8145,384.845 39.4645,381.85 C39.3145,381.55 38.9145,381.4 38.6145,381.55 C38.3145,381.695 38.1645,382.05 38.3145,382.4 C39.7145,385.4 41.2645,388.45 42.9645,391.35 C43.0645,391.55 43.2645,391.65 43.5145,391.65 C43.6145,391.65 43.7145,391.6 43.8145,391.55 C44.1145,391.4 44.2145,391 44.0645,390.695 M391.3145,381.6 C391.3145,381.55 391.2645,381.495 391.2645,381.45 C391.0645,381.15 390.6645,381.095 390.4145,381.25 C390.2145,381.35 390.0645,381.495 389.8645,381.6 C388.4645,382.545 386.9645,383.55 385.5145,384.445 C384.3645,385.245 383.1645,386 382.0145,386.75 C381.7145,386.895 381.6145,387.3 381.8145,387.6 C381.9145,387.8 382.1145,387.9 382.3145,387.9 C382.4145,387.9 382.5645,387.85 382.6645,387.8 C384.4145,386.695 386.1145,385.6 387.8145,384.445 C388.9145,383.75 390.0145,383.05 391.1145,382.3 C391.3145,382.145 391.4145,381.85 391.3145,381.6 M407.6145,369.8 C407.4145,369.5 407.0145,369.445 406.7645,369.645 C404.1145,371.65 401.3645,373.65 398.6645,375.6 C398.3645,375.8 398.3145,376.15 398.5145,376.45 C398.6645,376.6 398.8145,376.695 399.0145,376.695 C399.1645,376.695 399.2645,376.695 399.4145,376.6 C402.1145,374.645 404.8645,372.65 407.5145,370.645 C407.8145,370.445 407.8645,370.045 407.6145,369.8 M32.7645,363.05 C32.6645,362.7 32.3145,362.5 31.9645,362.6 C31.6645,362.7 31.4645,363.05 31.5145,363.345 C32.4145,366.65 33.4145,369.9 34.5145,373 C34.6145,373.3 34.8145,373.45 35.1145,373.45 C35.1645,373.45 35.2145,373.45 35.3145,373.395 C35.6145,373.3 35.8145,372.945 35.6645,372.6 C34.5645,369.5 33.6145,366.295 32.7645,363.05 M423.2645,357.095 C423.0145,356.85 422.6145,356.85 422.3645,357.05 C419.9145,359.15 417.3645,361.295 414.6645,363.5 C414.4145,363.7 414.3645,364.1 414.5645,364.35 C414.7145,364.5 414.8645,364.595 415.0645,364.595 C415.2145,364.595 415.3145,364.55 415.4645,364.445 C418.1645,362.3 420.7645,360.1 423.1645,358 C423.4645,357.745 423.4645,357.4 423.2645,357.095 M29.2145,343.345 C29.2145,343.05 28.9145,342.745 28.5645,342.8 C28.2145,342.85 27.9645,343.145 28.0145,343.5 C28.3645,346.895 28.8145,350.245 29.3645,353.5 C29.4145,353.795 29.7145,353.995 30.0145,353.995 L30.1145,353.995 C30.4645,353.95 30.6645,353.65 30.6145,353.3 C30.0645,350.045 29.5645,346.75 29.2145,343.345 M437.9645,343.45 C437.7145,343.195 437.3145,343.195 437.0645,343.45 C434.7645,345.75 432.3145,348.1 429.8645,350.4 C429.6145,350.6 429.5645,351 429.8145,351.25 C429.9145,351.4 430.1145,351.45 430.2645,351.45 C430.4145,351.45 430.5645,351.4 430.7145,351.295 C433.1645,348.995 435.6145,346.65 437.9645,344.3 C438.2145,344.05 438.2145,343.65 437.9645,343.45 M451.5145,328.595 C451.2645,328.345 450.8645,328.395 450.6145,328.65 C448.5645,331.15 446.3145,333.7 444.0145,336.2 C443.7645,336.45 443.8145,336.85 444.0645,337.095 C444.1645,337.2 444.3145,337.25 444.4645,337.25 C444.6645,337.25 444.8145,337.145 444.9145,337.05 C447.2645,334.5 449.5145,331.945 451.6145,329.445 C451.8145,329.195 451.7645,328.795 451.5145,328.595 M28.4645,327.85 C28.4645,326.4 28.4645,324.9 28.5145,323.395 C28.5145,323.05 28.2645,322.745 27.9145,322.745 C27.5645,322.745 27.2645,323 27.2645,323.345 C27.2145,324.845 27.2145,326.35 27.2145,327.85 C27.2145,329.75 27.2645,331.6 27.3145,333.45 C27.3145,333.75 27.6145,334.05 27.9145,334.05 L27.9645,334.05 C28.3145,333.995 28.5645,333.75 28.5645,333.395 C28.5145,331.55 28.4645,329.7 28.4645,327.85 M463.6145,312.6 C463.3145,312.4 462.9645,312.45 462.7645,312.745 C460.9145,315.445 458.9145,318.195 456.9145,320.845 C456.6645,321.15 456.7645,321.55 457.0145,321.75 C457.1145,321.8 457.2645,321.85 457.4145,321.85 C457.5645,321.85 457.7645,321.8 457.9145,321.6 C459.9145,318.95 461.9145,316.2 463.7645,313.45 C463.9645,313.145 463.9145,312.745 463.6145,312.6 M29.6145,302.745 C29.2145,302.65 28.9645,302.9 28.9145,303.25 C28.4645,306.65 28.1145,310 27.8145,313.3 C27.8145,313.65 28.0645,313.95 28.4145,313.95 L28.4645,313.95 C28.7645,313.95 29.0645,313.7 29.0645,313.395 C29.3645,310.1 29.7145,306.75 30.1645,303.45 C30.2145,303.1 29.9645,302.745 29.6145,302.745 M473.8645,295.3 C473.5645,295.2 473.2145,295.3 473.0145,295.6 C471.5645,298.45 469.9145,301.4 468.1645,304.3 C467.9645,304.595 468.0645,305 468.3645,305.2 C468.4645,305.245 468.5645,305.245 468.6645,305.245 C468.9145,305.245 469.1145,305.15 469.2145,304.95 C471.0145,302 472.6645,299.05 474.1645,296.15 C474.3145,295.845 474.1645,295.445 473.8645,295.3 M33.2145,282.945 C32.8645,282.9 32.5645,283.1 32.4645,283.45 C31.7645,286.75 31.0645,290.045 30.4645,293.3 C30.4145,293.65 30.6645,293.95 30.9645,294.05 L31.1145,294.05 C31.4145,294.05 31.6645,293.85 31.7145,293.55 C32.3145,290.3 32.9645,287 33.7145,283.7 C33.7645,283.345 33.5645,283.05 33.2145,282.945 M481.7645,276.85 C481.4145,276.75 481.0645,276.895 480.9645,277.25 C479.9145,280.3 478.6645,283.45 477.3145,286.55 C477.1645,286.895 477.3145,287.25 477.6645,287.4 C477.7145,287.4 477.8145,287.45 477.9145,287.45 C478.1145,287.45 478.3645,287.3 478.4645,287.05 C479.8145,283.9 481.0645,280.75 482.1145,277.65 C482.2645,277.345 482.0645,277 481.7645,276.85 M38.4145,263.55 C38.1145,263.45 37.7645,263.65 37.6645,263.995 C36.6645,267.2 35.7145,270.445 34.8645,273.65 C34.8145,273.995 35.0145,274.35 35.3145,274.395 C35.3645,274.445 35.4145,274.445 35.5145,274.445 C35.7645,274.445 36.0145,274.25 36.1145,273.995 C36.9145,270.8 37.8645,267.545 38.8645,264.35 C38.9645,263.995 38.7645,263.65 38.4145,263.55 M487.0645,257.5 C486.7145,257.4 486.4145,257.65 486.3145,257.945 C485.6145,261.15 484.7645,264.395 483.8645,267.7 C483.8145,268 483.9645,268.345 484.3145,268.45 C484.3645,268.45 484.4145,268.5 484.4645,268.5 C484.7645,268.5 485.0145,268.3 485.0645,268 C485.9645,264.75 486.8145,261.45 487.5645,258.25 C487.6145,257.9 487.4145,257.545 487.0645,257.5 M44.9645,244.55 C44.6145,244.445 44.2645,244.595 44.1645,244.9 C42.9645,248.05 41.8145,251.25 40.7645,254.395 C40.6145,254.7 40.8145,255.045 41.1145,255.2 L41.3145,255.2 C41.6145,255.2 41.8145,255.045 41.9145,254.8 C43.0145,251.65 44.1645,248.45 45.3145,245.35 C45.4145,245.045 45.2645,244.645 44.9645,244.55 M490.6645,237.7 C490.3645,237.65 490.0145,237.9 489.9645,238.25 C489.5145,241.55 488.9645,244.845 488.3645,248.145 C488.3145,248.5 488.5145,248.795 488.8645,248.9 L488.9645,248.9 C489.2645,248.9 489.5145,248.7 489.6145,248.395 C490.2145,245.045 490.7645,241.695 491.2145,238.45 C491.2145,238.1 491.0145,237.745 490.6645,237.7 M52.5645,225.95 C52.2645,225.8 51.9145,225.95 51.7645,226.295 C50.4145,229.35 49.0645,232.45 47.8145,235.55 C47.7145,235.845 47.8645,236.25 48.1645,236.35 C48.2645,236.4 48.3145,236.4 48.4145,236.4 C48.6645,236.4 48.8645,236.25 48.9645,236 C50.2145,232.945 51.5645,229.845 52.9145,226.8 C53.0645,226.45 52.9145,226.095 52.5645,225.95 M492.4145,217.7 C492.1145,217.745 491.8145,217.945 491.7645,218.3 C491.6145,221.65 491.4145,225 491.1145,228.3 C491.0645,228.65 491.3145,228.95 491.6645,228.995 L491.7145,228.995 C492.0145,228.995 492.3145,228.75 492.3145,228.395 C492.6645,225.1 492.8645,221.75 493.0145,218.345 C493.0645,218.05 492.7645,217.745 492.4145,217.7 M61.2145,207.8 C60.9145,207.65 60.5145,207.745 60.3645,208.05 C58.8645,211.05 57.3645,214.1 55.9645,217.095 C55.8145,217.45 55.9645,217.8 56.2645,217.945 C56.3645,218 56.4145,218 56.5145,218 C56.7645,218 56.9645,217.9 57.0645,217.65 C58.5145,214.645 60.0145,211.6 61.5145,208.65 C61.6645,208.3 61.5145,207.945 61.2145,207.8 M493.0145,198.245 C493.0145,197.9 492.7145,197.65 492.3645,197.65 C492.0145,197.65 491.7645,197.95 491.7645,198.3 C491.9145,201.6 492.0145,204.95 492.0145,208.3 C492.0145,208.65 492.3145,208.95 492.6145,208.95 C492.9645,208.95 493.2645,208.65 493.2645,208.3 C493.2645,204.95 493.1645,201.55 493.0145,198.245 M70.7145,190.05 C70.4145,189.9 70.0145,190 69.8645,190.3 C68.1645,193.245 66.5645,196.25 65.0145,199.15 C64.8645,199.45 64.9645,199.8 65.2645,199.95 C65.3645,200 65.4645,200.05 65.5645,200.05 C65.7645,200.05 66.0145,199.95 66.1145,199.7 C67.6645,196.85 69.2645,193.85 70.9645,190.9 C71.1145,190.6 71.0145,190.25 70.7145,190.05 M491.1145,178.15 C491.0645,177.8 490.7645,177.55 490.4145,177.65 C490.0645,177.7 489.8645,178 489.9145,178.345 C490.3645,181.65 490.7645,185 491.0645,188.3 C491.1145,188.65 491.3645,188.85 491.7145,188.85 L491.7645,188.85 C492.1145,188.85 492.3645,188.55 492.3145,188.2 C492.0145,184.85 491.6145,181.5 491.1145,178.15 M80.9645,172.8 C80.7145,172.6 80.3145,172.7 80.1145,173 C78.3645,175.845 76.6145,178.7 74.9145,181.6 C74.7145,181.9 74.8145,182.25 75.1145,182.45 C75.2145,182.5 75.3145,182.55 75.4145,182.55 C75.6645,182.55 75.8645,182.45 75.9645,182.25 C77.6645,179.35 79.4145,176.5 81.1645,173.65 C81.3645,173.345 81.2645,173 80.9645,172.8 M489.4145,167.85 L489.3645,167.85 C488.8145,164.7 488.0645,161.55 487.3145,158.345 C487.2645,158 486.9145,157.8 486.5645,157.9 C486.2645,157.95 486.0145,158.3 486.1145,158.65 C486.8645,161.7 487.5145,164.75 488.1145,167.8 C488.1645,168 488.2145,168.245 488.2645,168.45 C488.3145,168.75 488.5645,168.95 488.8645,168.95 L488.9645,168.95 C489.3145,168.85 489.5145,168.55 489.4645,168.2 C489.4645,168.1 489.4145,167.95 489.4145,167.85 M92.2145,155.65 C91.9645,155.45 91.5645,155.5 91.3645,155.8 L91.1145,156.15 C89.2645,158.9 87.3645,161.7 85.5645,164.495 C85.3645,164.8 85.4145,165.2 85.7145,165.4 C85.8145,165.45 85.9645,165.5 86.0645,165.5 C86.2645,165.5 86.4645,165.4 86.5645,165.2 C88.4145,162.4 90.2645,159.595 92.1645,156.85 L92.4145,156.5 C92.5645,156.25 92.5145,155.845 92.2145,155.65 M484.0145,146.35 C483.2645,143.85 482.4645,141.4 481.6645,139 C481.5645,138.65 481.1645,138.5 480.8645,138.6 C480.5145,138.75 480.3645,139.1 480.4645,139.4 C481.4145,142.15 482.3145,144.95 483.1645,147.8 C483.2645,148.2 483.4145,148.55 483.5145,148.95 C483.6145,149.25 483.8645,149.4 484.1145,149.4 L484.3145,149.4 C484.6145,149.3 484.8145,148.95 484.7145,148.6 C484.5145,147.85 484.2645,147.095 484.0145,146.35 M103.7645,139.2 C103.4645,139 103.0645,139.05 102.8645,139.35 C100.9645,142.05 99.0145,144.75 97.0645,147.55 C96.8645,147.8 96.9645,148.2 97.2145,148.4 C97.3645,148.5 97.4645,148.5 97.6145,148.5 C97.7645,148.5 97.9645,148.45 98.1145,148.245 C100.0145,145.5 101.9645,142.75 103.9145,140.05 C104.1145,139.75 104.0145,139.4 103.7645,139.2 M115.6645,123 C115.3645,122.8 115.0145,122.85 114.7645,123.1 C112.7645,125.745 110.7645,128.45 108.7645,131.2 C108.5645,131.45 108.6645,131.85 108.9145,132.05 C109.0145,132.15 109.1645,132.2 109.2645,132.2 C109.4645,132.2 109.6645,132.095 109.8145,131.9 C111.7645,129.2 113.7645,126.5 115.7645,123.85 C115.9645,123.6 115.9145,123.2 115.6645,123 M478.1145,129.55 C477.8145,128.8 477.4645,128 477.1145,127.2 C476.9645,126.8 476.7645,126.35 476.5645,125.9 C475.8145,124.05 474.9645,122.15 474.1145,120.3 C473.9645,120 473.6145,119.85 473.2645,120 C472.9645,120.15 472.8145,120.5 472.9645,120.8 C473.5645,122.095 474.1645,123.4 474.7145,124.7 C475.1145,125.55 475.4645,126.4 475.7645,127.2 C476.1645,128.05 476.5145,128.85 476.8145,129.7 C476.8645,129.8 476.9145,129.9 476.9645,130 C477.0645,130.25 477.2645,130.4 477.5145,130.4 C477.6145,130.4 477.6645,130.4 477.7645,130.35 C478.0145,130.25 478.2145,130 478.1645,129.7 C478.1645,129.65 478.1645,129.595 478.1145,129.55 M128.0145,107.095 C127.7145,106.9 127.3645,106.95 127.1145,107.2 C125.0645,109.7 123.1145,112.3 121.1145,114.85 C121.0645,114.95 120.9645,115 120.9145,115.1 C120.6645,115.4 120.7145,115.8 121.0145,116 C121.1145,116.1 121.2645,116.15 121.3645,116.15 C121.5145,116.15 121.6645,116.1 121.7645,116 C121.8145,115.95 121.8145,115.95 121.8645,115.9 C123.9645,113.2 126.0145,110.6 128.1145,108 C128.3145,107.75 128.2645,107.35 128.0145,107.095 M469.7145,111.25 C469.0645,110.05 468.4645,108.9 467.8145,107.75 C466.8645,105.95 465.8645,104.2 464.8145,102.45 C464.6645,102.15 464.2645,102.05 463.9645,102.2 C463.6645,102.4 463.5645,102.75 463.7645,103.05 C464.8145,104.85 465.8145,106.7 466.8645,108.6 C467.4145,109.65 468.0145,110.745 468.5645,111.85 C468.7145,112.05 468.9145,112.15 469.1145,112.15 C469.2145,112.15 469.3145,112.15 469.4145,112.095 C469.7145,111.95 469.8645,111.55 469.7145,111.25 M140.8645,91.65 C140.5645,91.45 140.2145,91.5 139.9645,91.75 C137.8145,94.25 135.6145,96.8 133.4645,99.4 C133.2645,99.7 133.2645,100.1 133.5645,100.3 C133.6645,100.4 133.8145,100.45 133.9645,100.45 C134.1145,100.45 134.3145,100.35 134.4145,100.2 C136.5645,97.6 138.7645,95.05 140.9145,92.55 C141.1145,92.3 141.1145,91.9 140.8645,91.65 M459.5145,93.85 C457.7145,91.05 455.8145,88.3 453.8645,85.55 C453.6645,85.25 453.2645,85.2 452.9645,85.4 C452.7145,85.6 452.6145,86 452.8145,86.3 C454.7645,89 456.7145,91.75 458.5145,94.55 C458.6145,94.7 458.8145,94.8 459.0145,94.8 C459.1145,94.8 459.2645,94.8 459.3645,94.7 C459.6645,94.55 459.7145,94.15 459.5145,93.85 M154.2645,76.7 C154.0145,76.5 153.6145,76.5 153.4145,76.75 C151.1145,79.15 148.8645,81.65 146.6145,84.15 C146.3645,84.45 146.4145,84.8 146.6645,85.05 C146.7645,85.15 146.9145,85.2 147.0645,85.2 C147.2145,85.2 147.4145,85.15 147.5145,85 C149.7645,82.5 152.0645,80 154.3145,77.6 C154.5645,77.35 154.5145,76.95 154.2645,76.7 M447.7645,77.55 C445.6645,74.9 443.4645,72.3 441.2645,69.8 C441.0645,69.55 440.6645,69.55 440.4145,69.75 C440.1145,70 440.1145,70.4 440.3645,70.65 C442.5145,73.1 444.7145,75.7 446.7645,78.3 C446.9145,78.45 447.0645,78.55 447.2645,78.55 C447.4145,78.55 447.5145,78.5 447.6645,78.4 C447.9145,78.2 447.9645,77.8 447.7645,77.55 M168.3645,62.4 C168.1145,62.15 167.7645,62.15 167.5145,62.4 C165.1645,64.65 162.7645,67.05 160.3645,69.495 C160.1145,69.75 160.1145,70.15 160.3645,70.35 C160.4645,70.5 160.6145,70.55 160.8145,70.55 C160.9645,70.55 161.1145,70.5 161.2645,70.35 C163.6145,67.95 166.0145,65.55 168.3645,63.3 C168.6145,63.05 168.6145,62.65 168.3645,62.4 M434.4645,62.45 C432.1145,60.05 429.7145,57.65 427.2645,55.4 C427.0145,55.15 426.6145,55.15 426.3645,55.4 C426.1645,55.65 426.1645,56.05 426.4145,56.3 C428.8645,58.55 431.2645,60.95 433.5645,63.3 C433.6645,63.4 433.8145,63.5 434.0145,63.5 C434.1645,63.5 434.3145,63.45 434.4145,63.3 C434.6645,63.05 434.6645,62.65 434.4645,62.45 M183.2645,48.9 C183.0145,48.65 182.6145,48.6 182.3645,48.85 C180.5645,50.4 178.7645,51.95 177.0145,53.55 C176.5645,53.9 176.1645,54.3 175.7645,54.7 C175.4645,54.95 175.1145,55.2 174.8145,55.5 C174.5645,55.745 174.5645,56.15 174.7645,56.4 C174.9145,56.5 175.0645,56.6 175.2645,56.6 C175.4145,56.6 175.5645,56.55 175.6645,56.45 C176.2145,55.95 176.7645,55.45 177.3145,54.95 L179.1145,53.3 C180.4645,52.095 181.8145,50.95 183.1645,49.8 C183.4145,49.55 183.4645,49.15 183.2645,48.9 M419.7645,48.7 C417.2145,46.5 414.5645,44.4 411.9645,42.35 C411.6645,42.15 411.2645,42.2 411.0645,42.45 C410.8645,42.75 410.9145,43.15 411.1645,43.345 C413.8145,45.35 416.4145,47.5 418.9645,49.65 C419.0645,49.75 419.2145,49.8 419.3645,49.8 C419.5145,49.8 419.7145,49.7 419.8145,49.55 C420.0645,49.3 420.0145,48.9 419.7645,48.7 M198.9645,36.4 C198.7645,36.15 198.3645,36.05 198.1145,36.3 C195.4645,38.2 192.8145,40.3 190.1145,42.4 C189.8645,42.65 189.8145,43 190.0145,43.3 C190.1645,43.45 190.3145,43.55 190.5145,43.55 C190.6645,43.55 190.7645,43.5 190.9145,43.4 C193.5645,41.25 196.2145,39.2 198.8645,37.3 C199.1145,37.095 199.1645,36.7 198.9645,36.4 M403.8145,36.4 C401.0645,34.45 398.2645,32.6 395.4145,30.8 C395.1645,30.65 394.7645,30.7 394.5645,31 C394.3645,31.3 394.4645,31.7 394.7645,31.85 C397.5645,33.65 400.3645,35.5 403.1145,37.4 C403.2145,37.5 403.3645,37.5 403.4645,37.5 C403.6645,37.5 403.8645,37.45 403.9645,37.25 C404.1645,36.95 404.1145,36.6 403.8145,36.4 M215.6645,25.2 C215.4645,24.95 215.0645,24.85 214.8145,25 C211.9645,26.75 209.1145,28.55 206.3145,30.45 C206.0145,30.65 205.9645,31.05 206.1645,31.35 C206.2645,31.5 206.4645,31.6 206.6645,31.6 C206.8145,31.6 206.9145,31.55 207.0145,31.5 C209.8145,29.595 212.6145,27.8 215.4645,26.1 C215.7645,25.9 215.8145,25.5 215.6645,25.2 M386.8145,25.65 C383.8645,24 380.8645,22.35 377.9145,20.845 C377.6145,20.7 377.2145,20.845 377.0645,21.15 C376.9145,21.45 377.0645,21.8 377.3645,21.995 C380.3145,23.5 383.2645,25.05 386.1645,26.7 C386.2645,26.8 386.3645,26.8 386.4645,26.8 C386.7145,26.8 386.9145,26.7 387.0145,26.5 C387.2145,26.2 387.1145,25.8 386.8145,25.65 M233.3145,15.7 C233.1645,15.35 232.8145,15.25 232.4645,15.4 C229.5145,16.8 226.4645,18.345 223.5145,19.95 C223.2145,20.15 223.1145,20.5 223.2645,20.8 C223.3645,21.05 223.6145,21.15 223.8145,21.15 C223.9145,21.15 224.0145,21.1 224.1145,21.05 C227.0645,19.45 230.0645,17.95 233.0145,16.5 C233.3145,16.35 233.4645,16 233.3145,15.7 M368.8145,16.5 C365.7645,15.15 362.6645,13.8 359.5645,12.55 C359.2645,12.45 358.8645,12.6 358.7645,12.9 C358.6145,13.245 358.7645,13.6 359.1145,13.75 C362.2145,14.95 365.3145,16.3 368.3145,17.65 C368.4145,17.7 368.4645,17.7 368.5645,17.7 C368.8145,17.7 369.0645,17.55 369.1645,17.35 C369.3145,16.995 369.1645,16.65 368.8145,16.5 M251.1645,7.8 C248.0145,8.85 244.8145,10.05 241.7145,11.3 C241.3645,11.45 241.2145,11.8 241.3645,12.095 C241.4645,12.35 241.7145,12.5 241.9145,12.5 C242.0145,12.5 242.1145,12.5 242.1645,12.45 C245.2645,11.2 248.4145,10 251.5645,8.95 C251.8645,8.85 252.0645,8.5 251.9145,8.2 C251.8145,7.85 251.4645,7.7 251.1645,7.8 M350.1145,9.05 C346.9145,7.95 343.7145,6.95 340.5145,6.05 C340.1645,5.95 339.8145,6.15 339.7145,6.5 C339.6145,6.8 339.8145,7.15 340.1645,7.25 C343.3145,8.15 346.5645,9.15 349.7145,10.25 L349.9145,10.25 C350.1645,10.25 350.4145,10.1 350.5145,9.85 C350.6145,9.495 350.4645,9.15 350.1145,9.05 M270.6145,2.6 C267.3145,3.245 264.0145,4 260.8145,4.9 C260.4645,4.95 260.2645,5.3 260.3645,5.65 C260.4145,5.9 260.6645,6.1 260.9645,6.1 L261.1145,6.1 C264.3145,5.25 267.6145,4.495 270.8645,3.85 C271.1645,3.8 271.4145,3.45 271.3645,3.1 C271.2645,2.8 270.9645,2.55 270.6145,2.6 M330.7145,3.6 C327.4145,2.9 324.0645,2.25 320.8145,1.75 C320.4645,1.7 320.1145,1.95 320.0645,2.25 C320.0145,2.6 320.2645,2.95 320.6145,3 C323.8645,3.5 327.1645,4.1 330.4645,4.8 C330.5145,4.85 330.5645,4.85 330.5645,4.85 C330.8645,4.85 331.1145,4.65 331.2145,4.35 C331.2645,4 331.0645,3.7 330.7145,3.6 M290.6645,0.15 L290.6145,0.15 C287.2645,0.35 283.8645,0.65 280.5645,1.05 C280.2145,1.1 279.9645,1.4 280.0145,1.75 C280.0645,2.05 280.3145,2.3 280.6645,2.3 L280.7145,2.3 C284.0145,1.9 287.3645,1.6 290.7145,1.4 C291.0145,1.4 291.3145,1.1 291.2645,0.745 C291.2645,0.45 290.9645,0.15 290.6645,0.15 M310.7645,0.55 C307.4645,0.25 304.0645,0.05 300.7145,-8.48210391e-14 C300.3645,-8.48210391e-14 300.0645,0.25 300.0645,0.6 C300.0645,0.95 300.3145,1.25 300.6645,1.25 C304.0145,1.3 307.3645,1.5 310.6645,1.8 L310.7145,1.8 C311.0645,1.8 311.3145,1.55 311.3645,1.2 C311.3645,0.845 311.1145,0.55 310.7645,0.55" id="Fill-6" fill="#6236FF"></path>
                        <path d="M490.5155,135.0495 L484.0155,146.3495 L483.1655,147.7995 L473.7605,164.0495 L471.7155,167.6495 L411.4155,272.0495 L401.4155,289.3495 L391.4155,272.0495 L355.6655,210.1495 L350.1655,200.6495 L337.9105,179.3995 L309.2155,129.6995 L493.6155,129.6995 L490.5155,135.0495 Z M304.9155,127.1995 L337.9105,184.3495 L347.3105,200.6495 L352.8155,210.1495 L388.5605,272.0495 L401.4155,294.3495 L414.3155,272.0495 L473.9605,168.6995 L476.0605,165.0995 L492.3655,136.8995 L496.8655,129.0495 L497.2655,128.3995 L497.9655,127.1995 L304.9155,127.1995 Z" id="Fill-8" fill="#FFFFFF"></path>
                        <path d="M336.0135,382.0975 C336.1635,382.6475 335.9135,383.4525 335.3635,384.4475 C334.1135,386.7975 331.1185,390.1475 327.9685,392.8975 C327.3135,393.4525 326.6635,393.9975 326.0135,394.4475 C324.1135,395.9975 322.2635,397.2025 320.8135,397.6475 C315.7135,399.3475 293.6635,396.4475 288.3135,393.5475 C287.9685,393.3475 287.7135,393.1475 287.4635,392.8975 C285.2685,393.0475 282.0135,393.0975 278.0635,392.8975 C276.2635,392.8025 274.3135,392.6475 272.2135,392.3475 C267.2635,391.7975 261.6135,390.6475 255.5135,388.6975 C252.5135,387.8025 249.3635,386.6475 246.1635,385.2475 C243.1635,383.8975 240.0635,382.3475 236.9635,380.5475 C236.2135,380.1475 235.6635,379.6475 235.0135,379.2525 C235.6135,383.8525 236.2135,388.3975 236.8635,392.8975 C237.0635,394.1475 237.2635,395.3975 237.4135,396.5975 C237.9635,400.1475 238.5135,403.6525 239.1135,407.0975 C241.4635,420.6475 244.1635,433.3975 247.4135,444.7975 C247.7135,445.9975 248.0635,447.2025 248.4135,448.3475 C247.3635,448.4975 246.3135,448.6525 245.3135,448.7975 C245.5635,449.9475 245.7635,451.1525 245.9635,452.3475 C248.4635,465.8475 250.3635,482.4975 251.7635,499.5975 C193.0635,522.8475 138.4135,528.2975 100.7135,505.2475 C88.7135,497.9475 78.4635,487.7475 70.3135,474.2975 C69.0135,472.1475 67.7135,469.9975 66.4135,467.8475 C66.6635,460.7975 66.9635,454.8475 67.2135,450.7975 C66.2635,450.6975 65.7635,450.6975 65.7635,450.6975 C65.7635,442.5475 66.1135,431.8475 66.6635,419.4975 C66.7135,418.9975 66.7135,418.4975 66.7135,417.9475 C66.9135,414.4475 67.1135,410.8475 67.3635,407.0975 C67.5635,402.4975 67.8635,397.8025 68.1635,392.8975 C68.6135,385.7975 69.1135,378.3975 69.6635,370.8975 C57.4635,367.6475 47.2635,364.1475 41.5135,360.6475 C34.0135,356.0975 31.1635,349.7475 31.3635,343.4975 C31.2635,342.2475 31.2635,340.8975 31.5635,339.4975 C34.4135,330.0475 44.2135,301.8975 55.3135,273.9475 L43.0135,269.7475 C43.0135,269.7475 78.9635,205.6975 100.0635,191.5975 C100.1635,191.5475 100.2135,191.4975 100.3135,191.4475 C107.7635,184.5475 118.5135,180.0975 134.6135,178.2975 C134.7135,164.9475 133.6635,142.3975 132.5635,125.1475 C127.3135,123.9475 123.7635,119.5975 121.7635,115.9975 C121.5135,115.5975 121.2635,115.1975 121.1135,114.8475 C120.3135,113.2975 119.8635,111.9975 119.6635,111.3475 C118.5635,106.9475 119.6135,103.2975 121.7635,100.9475 C121.3135,97.2975 120.6635,91.2975 120.4135,84.9975 C119.9135,73.3975 120.5635,60.6975 125.8135,59.5475 C125.7635,59.3975 125.6635,59.2975 125.6135,59.1975 C124.2635,55.0475 126.7135,50.4475 126.8135,50.2975 L129.0135,51.4475 C129.0135,51.4975 127.0135,55.2975 127.9635,58.3975 C132.1635,53.7475 146.3135,52.2475 161.1635,53.0975 C162.0135,53.0975 162.9135,53.1975 163.7635,53.2475 C166.8135,53.4975 169.8635,53.7975 172.8635,54.2475 C173.8635,54.3475 174.8135,54.4975 175.7635,54.6975 C176.2635,54.7475 176.8135,54.8475 177.3135,54.9475 C180.5635,55.4975 183.6635,56.1975 186.5135,56.9975 C191.4135,58.3475 195.5135,60.0475 198.2635,61.9975 C199.1635,62.5975 199.8635,63.2475 200.4635,63.8975 C202.9635,66.7975 203.3635,68.8475 202.2635,70.1975 C201.6135,70.9475 200.5635,71.4975 199.1635,71.8975 C199.7635,76.0975 200.0135,79.7475 200.1135,83.0975 C200.4135,83.8975 200.7135,84.7475 201.0135,85.5975 C201.2635,86.3475 201.5135,87.1475 201.7635,87.9475 C201.8135,87.9975 201.8635,87.9975 201.9135,88.0475 C202.2135,88.2975 202.5135,88.4975 202.8135,88.7475 C203.9135,89.7475 204.9135,90.9975 205.6635,92.6475 L203.4135,93.6975 C203.3635,93.5975 203.3135,93.5475 203.2635,93.4475 C203.8635,95.9975 204.4135,98.6475 204.8135,101.4475 C205.4135,105.5975 206.0635,109.7475 206.7135,113.7975 C206.9135,115.3475 207.1135,116.8975 207.3135,118.3975 C207.7635,121.4975 208.1635,124.5475 208.4135,127.4475 C208.5135,128.3475 208.6135,129.1975 208.6135,130.0475 C209.6635,143.2475 208.4135,154.1975 200.5135,159.6975 C199.0135,160.7975 197.2135,161.6975 195.1635,162.2975 C192.5635,163.1475 189.4635,163.5975 185.8635,163.6475 C185.9635,167.1475 186.1635,170.5475 186.4635,173.7475 C186.6135,174.9975 186.7635,176.2475 186.9635,177.3975 C187.1135,178.5975 187.3135,179.7975 187.5635,180.8975 C200.9135,184.0975 210.9635,189.4975 217.3135,196.8475 C217.6135,197.1475 217.9635,197.4475 218.2635,197.7975 C221.8135,201.2475 225.2635,206.5525 228.5135,212.8975 C232.6135,220.8475 236.4635,230.5025 239.8635,240.1475 C240.1135,240.8975 240.3635,241.6975 240.6635,242.4475 C240.9135,243.2975 241.2135,244.0975 241.4635,244.9475 C242.8635,249.0975 244.1635,253.2475 245.3635,257.2025 C246.2635,260.1475 247.0635,263.0025 247.8635,265.6975 C251.7135,279.2525 253.9635,289.2525 253.9635,289.2525 L247.8635,290.6975 L245.3635,291.2975 L243.5635,291.7525 C244.1635,294.1475 244.7635,296.4975 245.3635,298.8975 C245.4135,299.1475 245.5135,299.4475 245.5635,299.7025 C246.3635,302.8025 247.1135,305.9525 247.8635,308.9975 C251.7135,324.6475 254.9635,339.1475 256.4135,348.7475 C260.7135,352.2975 263.8635,357.8475 268.5135,363.0025 C273.2135,368.1975 279.5635,372.8975 290.3135,374.7475 C290.3635,374.7475 290.3635,374.7975 290.4135,374.7975 C294.6185,371.4975 302.4135,367.6025 307.1635,366.1525 C307.8135,365.9975 308.3685,365.8475 308.8635,365.7475 C309.2635,365.6475 309.6185,365.5975 309.9135,365.5975 C311.9185,365.1975 312.2135,365.3475 313.4135,366.0975 C313.8635,366.4475 314.4635,366.8975 315.4135,367.4475 C319.3135,369.7475 323.4135,371.8975 326.9635,373.9975 C331.3635,376.5525 334.8135,378.9975 335.8135,381.5975 C335.9135,381.7525 335.9635,381.9475 336.0135,382.0975" id="Fill-10" fill-opacity="0.510270979" fill="#000000" opacity="0.122233073"></path>
                        <path d="M350.867,367.425 C347.302,365.29 348.342,365.02 344.312,365.76 C339.962,366.565 330.602,371.055 325.867,374.795 C325.817,374.79 325.782,374.765 325.732,374.755 C304.292,371.08 300.522,355.915 291.852,348.735 C287.047,317.255 262.837,231.585 262.837,231.585 L226.357,245.15 C231.672,281.245 253.062,349.895 258.612,365.385 C259.522,367.26 260.697,368.75 262.012,369.96 C263.832,373.805 267.102,377.515 272.387,380.57 C294.257,393.215 314.957,393.39 322.877,392.885 C323.132,393.14 323.422,393.36 323.752,393.545 C329.117,396.475 351.127,399.345 356.267,397.66 C361.492,395.945 372.192,385.115 371.422,382.115 C370.172,377.215 359.802,372.775 350.867,367.425" id="Fill-12" fill="#FFC6B2"></path>
                        <path d="M230.103,208.4455 C219.803,231.5955 223.588,304.9505 223.588,304.9505 L289.413,289.2605 C289.413,289.2605 257.263,147.3755 230.103,208.4455" id="Fill-14" fill="#5023F2"></path>
                        <path d="M285.813,484.3975 C274.418,490.1025 263.013,495.1975 251.763,499.5975 C193.063,522.8475 138.418,528.2975 100.713,505.2475 C101.263,483.5975 102.013,461.0475 102.613,450.7975 C102.713,449.5975 102.813,448.5475 102.863,447.6975 L123.063,447.2975 L123.963,447.2975 L124.013,447.2475 L233.313,445.1025 L233.418,445.1025 L240.413,444.9475 L247.413,444.7975 L279.713,444.1475 C280.068,445.6475 280.413,447.2475 280.713,448.8525 C282.813,459.0525 284.463,471.2975 285.813,484.3975" id="Fill-16" fill="#232323"></path>
                        <path d="M181.7485,177.4275 C142.4785,178.7225 129.2035,191.9775 122.4335,214.9025 C114.7435,240.9325 101.2035,398.1525 101.2035,450.6875 C101.2035,450.6875 218.7285,459.0175 283.8335,448.3425 C263.4185,379.3875 261.2135,255.4075 260.8035,218.4675 C260.4985,190.7575 231.5285,175.7825 181.7485,177.4275" id="Fill-18" fill="#6236FF"></path>
                        <path d="M216.343,113.1375 C220.208,110.2225 240.388,112.8675 234.578,71.7825 C232.458,56.7925 218.383,66.7975 208.418,68.7975 C198.448,70.7975 204.788,113.8775 204.788,113.8775 L216.343,113.1375 Z" id="Fill-22" fill="#232323"></path>
                        <path d="M166.099,103.2965 C167.774,114.1865 171.124,173.1015 169.729,186.7865 C168.334,200.4715 234.514,204.3765 225.854,189.3015 C217.199,174.2215 223.344,124.2365 223.344,124.2365 L166.099,103.2965 Z" id="Fill-23" fill="#FFC6B2"></path>
                        <path d="M170.679,104.9615 L223.334,124.2415 C223.334,124.2415 219.779,153.3515 221.924,173.8515 C181.774,170.7465 171.469,120.0365 170.794,110.2715 C170.679,108.4315 170.624,106.6565 170.679,104.9615" id="Fill-24" fill="#D88344"></path>
                        <path d="M240.2395,101.441 C245.1195,135.076 253.4045,168.616 212.6345,163.091 C171.8595,157.571 165.5295,105.296 165.6445,95.441 C166.2795,42.826 230.6445,35.301 240.2395,101.441" id="Fill-25" fill="#FFC6B2"></path>
                        <path d="M235.8915,63.885 C226.2965,52.74 172.3515,48.535 163.4215,58.405 C162.4415,55.305 164.4415,51.495 164.4615,51.46 L162.2615,50.275 C162.1565,50.465 159.7215,55.06 161.0465,59.19 C161.0915,59.32 161.2015,59.41 161.2465,59.54 C151.3765,61.715 157.6765,104.595 157.6765,104.595 L169.2315,103.855 C173.0965,100.945 186.5115,80.455 189.4665,68.09 C210.5915,71.665 248.0865,78.05 235.8915,63.885" id="Fill-26" fill="#232323"></path>
                        <path d="M230.154,368.6115 C226.024,368.8415 209.999,371.6265 204.374,370.3215 C185.469,365.9065 136.749,344.0515 110.524,331.8365 C126.659,296.8115 150.409,234.8215 150.409,234.8215 L113.064,223.8615 C95.734,255.9665 71.799,323.7715 66.979,339.5065 C66.709,340.9165 66.689,342.2415 66.774,343.5115 C66.604,349.7365 69.454,356.0915 76.939,360.6515 C97.699,373.2965 176.014,385.5665 197.704,387.9615 C198.104,388.7715 198.634,389.5065 199.494,389.9915 C204.799,392.9715 228.939,395.2015 233.904,396.0815 C240.129,397.1815 259.024,398.7815 258.209,396.2515 C256.874,392.1065 249.869,367.5065 230.154,368.6115" id="Fill-27" fill="#FFC6B2"></path>
                        <path d="M135.479,191.617 C114.414,205.697 78.454,269.742 78.454,269.742 L142.489,291.617 C142.489,291.617 191.049,154.477 135.479,191.617" id="Fill-28" fill="#6236FF"></path>
                        <path d="M205.9085,99.7785 C205.7785,101.4185 206.6635,102.8235 207.8885,102.9235 C209.1185,103.0185 210.2185,101.7735 210.3535,100.1335 C210.4885,98.4985 209.5985,97.0885 208.3685,96.9885 C207.1435,96.8935 206.0385,98.1385 205.9085,99.7785" id="Fill-29" fill="#232323"></path>
                        <path d="M231.88,100.467 C231.75,102.107 232.635,103.512 233.86,103.612 C235.09,103.707 236.19,102.462 236.325,100.822 C236.455,99.187 235.565,97.777 234.34,97.677 C233.115,97.582 232.01,98.827 231.88,100.467" id="Fill-30" fill="#232323"></path>
                        <path d="M199.5195,90.5745 L197.4245,89.2095 C201.8445,82.4395 209.2645,84.0095 209.5845,84.0795 L209.0395,86.5195 C208.7995,86.4695 202.9745,85.2795 199.5195,90.5745" id="Fill-31" fill="#232323"></path>
                        <path d="M238.8355,93.692 C236.1905,87.937 230.2505,88.252 230.0155,88.277 L229.8405,85.782 C230.1605,85.762 237.7305,85.297 241.1055,92.647 L238.8355,93.692 Z" id="Fill-32" fill="#232323"></path>
                        <path d="M214.253,130.745 C210.028,130.745 201.903,129.545 196.858,121.155 L198.998,119.865 C205.113,130.035 216.083,128.18 216.548,128.095 L217.003,130.55 C216.963,130.56 215.908,130.745 214.253,130.745" id="Fill-33" fill="#232323"></path>
                        <polygon id="Fill-34" fill="#D88344" points="233.477 119.3535 221.337 119.1885 221.372 116.6885 230.127 116.8085 224.722 98.3735 227.117 97.6685"></polygon>
                        <path d="M175.9865,107.576 C179.6665,115.876 184.2815,123.906 172.7165,125.396 C161.1515,126.891 155.7715,113.906 155.1165,111.361 C151.6165,97.786 168.7415,91.256 175.9865,107.576" id="Fill-35" fill="#FEBEA8"></path>
                        <path d="M489.0895,407.083 L10.6495,407.083 C6.7445,407.083 3.5495,403.888 3.5495,399.983 C3.5495,396.078 6.7445,392.883 10.6495,392.883 L489.0895,392.883 C492.9945,392.883 496.1895,396.078 496.1895,399.983 C496.1895,403.888 492.9945,407.083 489.0895,407.083" id="Fill-36" fill="#FFFFFF"></path>
                        <path d="M187.71,407.083 L7.1,407.083 C3.195,407.083 1.98951966e-13,403.888 1.98951966e-13,399.983 C1.98951966e-13,396.078 3.195,392.883 7.1,392.883 L187.71,392.883 C191.615,392.883 194.81,396.078 194.81,399.983 C194.81,403.888 191.615,407.083 187.71,407.083" id="Fill-37" fill="#D8D5DB"></path>
                        <path d="M465.662,381.6095 L317.252,381.6095 C311.587,381.6095 307.827,377.0095 308.857,371.3395 L325.042,282.3345 C326.077,276.6595 331.507,272.0645 337.182,272.0645 L485.587,272.0645 C491.257,272.0645 495.017,276.6595 493.987,282.3345 L477.802,371.3395 C476.767,377.0095 471.337,381.6095 465.662,381.6095" id="Fill-38" fill="#2B2B2B"></path>
                        <path d="M319.438041,378.1095 C314.001198,378.1095 311.392714,375.047602 312.381231,369.742248 L328.095216,283.763369 C329.083733,278.453336 332.697653,275.6095 338.139295,275.6095 L483.576182,275.6095 C489.022623,275.6095 491.457632,277.775924 490.469115,283.085957 L474.614137,368.499979 C473.62562,373.805333 471.099409,378.1095 465.657767,378.1095 L319.438041,378.1095 Z" id="Fill-39" fill="#FFFFFF"></path>
                        <g id="Group" transform="translate(369.198500, 307.998500)">
                            <g id="Group-6" transform="translate(0.784404, 0.000000)">
                                <path d="M173.433789,12.6666667 L173.433789,8.16547619 L174.66055,8.16547619 L174.66055,7.49659864 L171.522936,7.49659864 L171.522936,8.16547619 L172.749697,8.16547619 L172.749697,12.6666667 L173.433789,12.6666667 Z M176.095665,12.6666667 L176.095665,8.93129252 L177.670575,11.7231293 L179.239197,8.93129252 L179.239197,12.6666667 L179.889908,12.6666667 L179.889908,7.49659864 L179.295781,7.49659864 L177.670575,10.395068 L176.039082,7.49659864 L175.444954,7.49659864 L175.444954,12.6666667 L176.095665,12.6666667 Z" id="TM" fill="#010039" fill-rule="nonzero" opacity="0"></path>
                                <g id="Group-3" transform="translate(0.092058, 0.252858)">
                                    <polygon id="Rectangle" fill="url(#linearGradient-3)" transform="translate(36.586241, 18.749716) rotate(39.000000) translate(-36.586241, -18.749716) " points="25.2359026 3.8736915 48.0796962 3.76442978 47.9365787 33.6257408 25.0927852 33.7350026"></polygon>
                                    <polygon id="Rectangle" fill="url(#linearGradient-4)" transform="translate(18.544956, 18.749716) rotate(39.000000) translate(-18.544956, -18.749716) " points="7.19461822 3.8736915 30.0384118 3.76442978 29.8952943 33.6257408 7.05150075 33.7350026"></polygon>
                                    <polygon id="T" fill="#FFFFFF" fill-rule="nonzero" transform="translate(29.269135, 19.890778) rotate(38.000000) translate(-29.269135, -19.890778) " points="31.5438913 29.2094279 31.9337708 15.3475622 38.4045206 15.2679333 38.373266 10.5721275 20.1337484 10.6416077 20.1412885 15.2453793 27.2920576 15.2721154 26.8605951 29.1437415"></polygon>
                                </g>
                            </g>
                        </g>
                        <path d="M291.2235,384.456 C291.2235,389.091 295.0185,392.886 299.6585,392.886 L454.9035,392.886 C459.5435,392.886 463.3385,389.091 463.3385,384.456 L291.2235,384.456 Z" id="Fill-41" fill="#232323"></path>
                        <path d="M246.121,384.456 C246.121,389.091 249.911,392.886 254.551,392.886 L315.601,392.886 C320.241,392.886 324.036,389.091 324.036,384.456 L246.121,384.456 Z" id="Fill-42" fill="#2B2B2B"></path>
                        <path d="M416.648,108.2255 C411.393,108.2255 407.133,112.4905 407.133,117.7455 L426.168,117.7455 C426.168,112.4905 421.908,108.2255 416.648,108.2255" id="Fill-43" fill="#377ADB"></path>
                        <path d="M416.658,108.228 L416.658,200.658 C416.658,205.923 412.388,210.148 407.123,210.148 L337.918,210.148 L337.918,117.768 C337.918,112.498 342.183,108.228 347.413,108.228 L416.658,108.228 Z" id="Fill-44" fill="#4D8DFF"></path>
                        <path d="M397.6295,200.6575 L328.3895,200.6475 C328.3895,205.9025 332.6545,210.1625 337.9145,210.1625 L407.1195,210.1475 C401.8595,210.1475 397.6295,205.9225 397.6295,200.6575" id="Fill-45" fill="#6EA9FF"></path>
                        <polygon id="Fill-46" fill="#FFFFFF" points="348.2685 123.7485 406.3185 123.7485 406.3185 121.2485 348.2685 121.2485"></polygon>
                        <polygon id="Fill-47" fill="#FFFFFF" points="348.2685 133.2185 406.3185 133.2185 406.3185 130.7185 348.2685 130.7185"></polygon>
                        <polygon id="Fill-48" fill="#FFFFFF" points="348.2685 142.6885 406.3185 142.6885 406.3185 140.1885 348.2685 140.1885"></polygon>
                        <polygon id="Fill-49" fill="#FFFFFF" points="348.2685 152.1585 406.3185 152.1585 406.3185 149.6585 348.2685 149.6585"></polygon>
                        <polygon id="Fill-50" fill="#FFFFFF" points="384.3185 161.6285 406.3185 161.6285 406.3185 159.1285 384.3185 159.1285"></polygon>
                        <polygon id="Fill-51" fill="#FFFFFF" points="384.3185 171.0985 406.3185 171.0985 406.3185 168.5985 384.3185 168.5985"></polygon>
                        <polygon id="Fill-52" fill="#FFFFFF" points="384.3185 180.5685 406.3185 180.5685 406.3185 178.0685 384.3185 178.0685"></polygon>
                        <polygon id="Fill-53" fill="#FFFFFF" points="384.3185 190.0385 406.3185 190.0385 406.3185 187.5385 384.3185 187.5385"></polygon>
                        <path d="M376.583587,159.9985 C375.133499,159.9985 373.968674,161.164245 373.968674,162.615479 C373.968674,163.234037 374.182714,163.805107 374.539293,164.257131 L368.168228,173.249743 C367.882965,173.15458 367.597887,173.107092 367.288852,173.107092 C366.694553,173.107092 366.171664,173.297232 365.719997,173.630302 L362.581822,171.227532 C362.700682,170.918253 362.772184,170.609066 362.772184,170.252206 C362.772184,168.800972 361.607359,167.635227 360.15727,167.635227 C358.707182,167.635227 357.542357,168.800972 357.542357,170.252206 C357.542357,170.823183 357.732347,171.370369 358.065154,171.798602 L353.049368,178.293654 C352.740333,178.1747 352.407619,178.103142 352.074812,178.103142 C350.624723,178.103142 349.459898,179.268887 349.459898,180.720121 C349.459898,182.171354 350.624723,183.337099 352.074812,183.337099 C353.5249,183.337099 354.689725,182.171354 354.689725,180.720121 C354.689725,180.149144 354.499735,179.601957 354.166928,179.173724 L359.182714,172.678673 C359.491749,172.797626 359.800691,172.869184 360.15727,172.869184 C360.751569,172.869184 361.274459,172.679045 361.726125,172.345974 L364.8643,174.748744 C364.74544,175.058023 364.673939,175.391 364.673939,175.72407 C364.673939,177.175304 365.838764,178.341049 367.288852,178.341049 C368.73894,178.341049 369.903765,177.175304 369.903765,175.72407 C369.903765,175.105512 369.689725,174.534442 369.333146,174.082418 L375.704211,165.089806 C375.965702,165.184969 376.274552,165.232458 376.583587,165.232458 C378.033675,165.232458 379.1985,164.066713 379.1985,162.615479 C379.1985,161.164245 378.033675,159.9985 376.583587,159.9985 Z M376.559908,161.449641 C377.225522,161.449641 377.748505,161.973036 377.748505,162.639177 C377.748505,163.305317 377.225522,163.828712 376.559908,163.828712 C375.894293,163.828712 375.371311,163.305317 375.371311,162.639177 C375.371311,161.973036 375.894293,161.449641 376.559908,161.449641 Z M360.15727,169.06267 C360.822885,169.06267 361.345867,169.586066 361.345867,170.252206 C361.345867,170.918346 360.822885,171.441741 360.15727,171.441741 C359.491656,171.441741 358.968674,170.918346 358.968674,170.252206 C358.968674,169.586066 359.491656,169.06267 360.15727,169.06267 Z M367.288852,174.534535 C367.954466,174.534535 368.477449,175.05793 368.477449,175.72407 C368.477449,176.39021 367.954466,176.913606 367.288852,176.913606 C366.623238,176.913606 366.100255,176.39021 366.100255,175.72407 C366.100255,175.05793 366.623238,174.534535 367.288852,174.534535 Z M352.074812,179.530585 C352.740426,179.530585 353.263409,180.053981 353.263409,180.720121 C353.263409,181.386261 352.740426,181.909657 352.074812,181.909657 C351.409197,181.909657 350.886215,181.386261 350.886215,180.720121 C350.886215,180.053981 351.409197,179.530585 352.074812,179.530585 Z M349.900979,188.557118 C349.726033,188.564924 349.561022,188.636667 349.436219,188.761568 C349.412447,188.785359 349.364811,188.83294 349.341039,188.880522 C349.317267,188.928103 349.293309,188.951894 349.269537,188.999475 C349.245765,189.047057 349.245951,189.094546 349.222179,189.142127 C349.222179,189.189708 349.1985,189.237197 349.1985,189.284779 C349.1985,189.475104 349.269909,189.665337 349.41254,189.784291 C349.555172,189.927035 349.721483,189.9985 349.911658,189.9985 C349.959202,189.9985 350.006653,189.998593 350.054197,189.974802 C350.101741,189.974802 350.149192,189.950733 350.196736,189.926942 C350.24428,189.903152 350.291823,189.879639 350.315595,189.855848 C350.363139,189.832058 350.387004,189.808174 350.410776,189.760593 L350.505957,189.665337 C350.529729,189.617756 350.553222,189.593965 350.576994,189.546384 C350.600766,189.498802 350.601044,189.451314 350.624816,189.403732 C350.624816,189.356151 350.648495,189.308662 350.648495,189.261081 C350.648495,189.070755 350.577087,188.880522 350.434455,188.761568 C350.410683,188.737778 350.363046,188.713801 350.339274,188.690011 C350.291731,188.66622 350.267959,188.642244 350.220415,188.618453 C350.172871,188.594662 350.12542,188.594848 350.077876,188.571057 C350.018446,188.559162 349.959295,188.554515 349.900979,188.557118 Z M354.689725,188.571057 C354.285602,188.571057 353.976567,188.880336 353.976567,189.284779 C353.976567,189.689221 354.285602,189.9985 354.689725,189.9985 L378.461663,189.9985 C378.865786,189.9985 379.174821,189.689221 379.174821,189.284779 C379.174821,188.880336 378.865786,188.571057 378.461663,188.571057 L354.689725,188.571057 Z" id="Shape" fill="#FFFFFF" fill-rule="nonzero" transform="translate(364.198500, 174.998500) scale(-1, 1) translate(-364.198500, -174.998500) "></path>
                        <path d="M513.3815,157.891 C500.1315,171.141 478.6415,171.141 465.3865,157.891 C452.1365,144.636 452.1365,123.151 465.3865,109.896 C478.6415,96.641 500.1315,96.641 513.3815,109.896 C526.6315,123.151 526.6315,144.636 513.3815,157.891" id="Fill-54" fill="#FFC84D"></path>
                        <path d="M489.3875,133.8945 L516.3525,160.8595 C501.5625,175.6545 477.2075,175.6545 462.4175,160.8595 C456.0825,154.5195 452.1775,146.1495 451.3925,137.2195 L489.3875,133.8945 Z" id="Fill-55" fill="#232323"></path>
                        <path d="M489.3875,133.8945 L451.5075,138.3095 C451.0075,134.0345 451.2375,129.7045 452.1875,125.4995 C453.1325,121.2995 454.7825,117.2895 457.0725,113.6395 L489.3875,133.8945 Z" id="Fill-56" fill="#FFFFFF"></path>
                    </g>
                    <g id="Group-15" transform="translate(286.167500, 42.554500)">
                        <path d="M43.9035,42.245 L15.1535,42.245 C11.4435,42.245 8.4035,39.21 8.4035,35.495 L8.4035,6.75 C8.4035,3.04 11.4435,1.77635684e-13 15.1535,1.77635684e-13 L43.9035,1.77635684e-13 C47.6135,1.77635684e-13 50.6535,3.04 50.6535,6.75 L50.6535,35.495 C50.6535,39.21 47.6135,42.245 43.9035,42.245" id="Fill-57" fill="#232323"></path>
                        <path d="M35.5,50.648 L6.75,50.648 C3.04,50.648 1.0658141e-14,47.613 1.0658141e-14,43.898 L1.0658141e-14,15.153 C1.0658141e-14,11.443 3.04,8.403 6.75,8.403 L35.5,8.403 C39.21,8.403 42.25,11.443 42.25,15.153 L42.25,43.898 C42.25,47.613 39.21,50.648 35.5,50.648" id="Fill-58" fill="#FF4E4A"></path>
                    </g>
                    <g id="Group-28" transform="translate(13.346500, 116.000000)">
                        <path d="M35.5,42.245 L6.75,42.245 C3.04,42.245 1.0658141e-14,39.21 1.0658141e-14,35.495 L1.0658141e-14,6.75 C1.0658141e-14,3.04 3.04,-4.97379915e-14 6.75,-4.97379915e-14 L35.5,-4.97379915e-14 C39.21,-4.97379915e-14 42.25,3.04 42.25,6.75 L42.25,35.495 C42.25,39.21 39.21,42.245 35.5,42.245" id="Fill-57" fill="#232323" transform="translate(21.125000, 21.122500) scale(-1, 1) translate(-21.125000, -21.122500) "></path>
                        <path d="M43.9035,50.648 L15.1535,50.648 C11.4435,50.648 8.4035,47.613 8.4035,43.898 L8.4035,15.153 C8.4035,11.443 11.4435,8.403 15.1535,8.403 L43.9035,8.403 C47.6135,8.403 50.6535,11.443 50.6535,15.153 L50.6535,43.898 C50.6535,47.613 47.6135,50.648 43.9035,50.648" id="Fill-58" fill="#00C2F3" transform="translate(29.528500, 29.525500) scale(-1, 1) translate(-29.528500, -29.525500) "></path>
                        <g id="activism" transform="translate(28.653500, 29.000000) scale(-1, 1) translate(-28.653500, -29.000000) translate(16.653500, 15.000000)" fill="#FFFFFF" fill-rule="nonzero">
                            <ellipse id="Oval" cx="3.5" cy="9" rx="1.5" ry="2"></ellipse>
                            <path d="M10.7959653,6.59011038 C10.7430814,6.56529929 10.6888372,6.54634866 10.6340262,6.53260123 L10.6340262,4.34040722 L13.5070411,4.34040722 C13.7792823,4.34040722 14,4.12713043 14,3.86401238 L14,0.476394841 C14,0.21333156 13.7792823,0 13.5070411,0 L6.91078904,0 C6.63854783,0 6.4178301,0.213276789 6.4178301,0.476394841 L6.4178301,3.86406715 C6.4178301,4.1271852 6.63854783,4.34046199 6.91078904,4.34046199 L9.78380386,4.34046199 L9.78380386,6.77271563 C9.72644219,6.83225129 9.67707261,6.90087887 9.63841583,6.97794113 L8.23492539,9.7732692 L5.86682931,10.9438816 C4.65911675,10.9438816 3.38327304,10.9438816 2.06610851,10.9438816 C0.941320973,10.9438816 0.00567957531,11.8280985 0,12.9149667 L0,19.0649403 C-0.00236919663,19.5272591 0.367534224,19.9039167 0.845982703,19.9062171 L0.850403859,19.9062171 C1.3268118,19.9062171 1.73021399,19.534215 1.73259461,19.0732655 L1.73259461,12.9233466 C1.73350151,12.7550365 1.91567583,12.6180551 2.08985806,12.6180551 C2.08815761,13.8939915 2.09053823,26.466587 2.08985806,26.9954521 C2.08985806,27.5502237 2.55776378,28 3.13189062,28 C3.70601745,28 4.17148587,27.5502784 4.17148587,26.9954521 L4.17148587,18.9660794 L4.62034661,18.9660794 L4.62034661,26.9954521 C4.62034661,27.5502237 5.08575835,28 5.65994187,28 C6.23412539,28 6.69970717,27.5502784 6.69970717,26.9954521 L6.69970717,12.4125558 L9.28228601,11.136017 C9.44989318,11.053149 9.58496518,10.9198373 9.66715335,10.756128 L11.1972702,7.70858119 C11.4060849,7.29270788 11.2264612,6.79194011 10.7959653,6.59011038 L10.7959653,6.59011038 Z" id="Path"></path>
                            <ellipse id="Oval" cx="17.5" cy="9" rx="1.5" ry="2"></ellipse>
                            <path d="M23.5383715,7.08217512 C23.1315343,6.88513023 22.6414218,7.05458349 22.4439514,7.46075796 L21.1170146,10.1898162 L18.8781772,11.3326765 C17.7363856,11.3326765 16.5301817,11.3326765 15.2849125,11.3326765 C15.0664357,11.3326765 14.8570689,11.4197827 14.7032724,11.5745846 L13.0291414,13.2597594 L11.3254299,11.9225278 C10.9699296,11.6434032 10.4549525,11.7047892 10.1753323,12.059577 C9.89565849,12.4143112 9.95717708,12.9281252 10.3126774,13.2071963 L12.5903123,14.9949843 C12.9186437,15.2526666 13.3864101,15.2218131 13.6783554,14.9279837 L15.3186191,13.2679407 C15.3173866,14.2241297 15.3194765,26.346748 15.3186191,27.0192672 C15.3186191,27.5608867 15.7497316,28 16.2925206,28 C16.8353097,28 17.2753713,27.5609402 17.2753713,27.0192672 C17.2752641,25.6290447 17.2759607,19.2494961 17.2745675,19.1647962 L17.7004819,19.1647962 C17.6992494,19.2393899 17.6998389,25.2480557 17.6996781,27.0192672 C17.6996781,27.5608867 18.1397397,28 18.6825288,28 C19.2253178,28 19.6655402,27.5609402 19.6655402,27.0192672 C19.665433,25.6290447 19.6655402,12.7666393 19.6655402,12.7666393 L22.1071532,11.5204173 C22.2656118,11.4395139 22.3933647,11.3093627 22.4710132,11.1495344 L23.9176112,8.17423689 C24.1151351,7.76811589 23.945316,7.27916653 23.5383715,7.08217512 Z" id="Path"></path>
                            <path d="M16.5,6 C16.7760833,6 17,5.87244244 17,5.71516734 L17,4.28483266 C17,4.12755756 16.7760833,4 16.5,4 C16.2239167,4 16,4.12755756 16,4.28483266 L16,5.71516734 C16,5.87244244 16.2238333,6 16.5,6 Z" id="Path"></path>
                            <path d="M15.3657391,6.89117342 C15.5107714,7.03627553 15.7460928,7.03627553 15.8911871,6.89117342 C16.0362813,6.74607131 16.0362813,6.51079905 15.8911251,6.36569695 L14.6342609,5.10882658 C14.4892286,4.96372447 14.2539072,4.96372447 14.1088129,5.10882658 C13.9637187,5.25392869 13.9637187,5.48920095 14.1088749,5.63430305 L15.3657391,6.89117342 Z" id="Path"></path>
                        </g>
                    </g>
                    <g id="efficiency" transform="translate(293.607143, 59.000000)" fill="#FFFFFF" fill-rule="nonzero">
                        <path d="M26.4852632,12.8429474 C26.4852632,12.4334737 26.3400526,12.0463684 26.0740526,11.7404211 C26.5832105,11.4578421 26.9347895,10.9186842 26.9467895,10.3015263 C26.9558947,9.85421053 26.7854737,9.42878947 26.4668947,9.10368421 C26.3486316,8.98305263 26.2135789,8.88115789 26.0672632,8.80057895 C26.3273684,8.50421053 26.4852632,8.11589474 26.4852632,7.69142105 C26.4852632,7.24142105 26.3100526,6.81878947 25.9926316,6.50205263 C25.6755789,6.18426316 25.2529474,6.00931579 24.8026842,6.00931579 L21.781,6.00931579 L22.9383684,3.544 C23.4307895,2.49578947 22.9782632,1.24189474 21.9294211,0.748894737 C21.6482105,0.616842105 21.3482632,0.549894737 21.0379474,0.549894737 C20.2261579,0.549894737 19.4789474,1.02431579 19.1342632,1.75857895 L18.5307895,3.04473684 C18.5118421,3.085 18.4924211,3.12478947 18.4721053,3.16405263 C18.3718947,3.35763158 18.4474737,3.59584211 18.6411053,3.69610526 C18.8345789,3.79631579 19.0728947,3.72073684 19.1731579,3.52715789 C19.1980526,3.47910526 19.2218421,3.43042105 19.2452632,3.38063158 L19.8488947,2.09389474 C20.0641053,1.63552632 20.5307895,1.33931579 21.0378947,1.33931579 C21.2313684,1.33931579 21.4183684,1.38105263 21.5936842,1.46336842 C22.2484737,1.77121053 22.5311579,2.55394737 22.2237895,3.20836842 L20.8111579,6.21731579 C20.7543158,6.33836842 20.7626316,6.48 20.8332632,6.59352632 L20.8453158,6.61247368 C20.9173684,6.72831579 21.0441053,6.79873684 21.1805263,6.79873684 L24.8026316,6.79873684 C25.0417368,6.79873684 25.2658421,6.89136842 25.4343684,7.06026316 C25.6029474,7.22842105 25.6957895,7.45257895 25.6957895,7.69136842 C25.6957895,8.18415789 25.2951579,8.58505263 24.8026316,8.58505263 C24.5845789,8.58505263 24.4078947,8.76178947 24.4078947,8.97978947 C24.4078947,9.19778947 24.5845789,9.37452632 24.8026316,9.37452632 L25.2363158,9.37452632 C25.4845789,9.37452632 25.7275789,9.47715789 25.9029474,9.65615789 C26.0717895,9.82852632 26.1622105,10.052 26.1574211,10.2857368 C26.148,10.7682632 25.7477895,11.1607895 25.2652632,11.1607895 L24.8026316,11.1607895 C24.5845789,11.1607895 24.4078947,11.3375263 24.4078947,11.5555263 C24.4078947,11.7735263 24.5845789,11.9502632 24.8026316,11.9502632 C25.0416842,11.9502632 25.2659474,12.0428421 25.4340526,12.211 C25.6028421,12.3797895 25.6957895,12.6041579 25.6957895,12.8428947 C25.6957895,13.3353684 25.2951579,13.7360526 24.8026316,13.7360526 L24.3405263,13.7360526 C24.1224737,13.7360526 23.9457895,13.9127895 23.9457895,14.1307895 C23.9457895,14.3487895 24.1224737,14.5255263 24.3405263,14.5255263 C24.5788421,14.5255263 24.8032105,14.6184211 24.9713684,14.7862105 C25.0566316,14.8717895 25.1228421,14.9713684 25.1682632,15.0822632 C25.1693684,15.0852632 25.1704737,15.0882105 25.1715789,15.0911579 C25.2123684,15.1948421 25.2331053,15.3050526 25.2331053,15.4186842 C25.2331053,15.9111579 24.8326842,16.3118421 24.3404737,16.3118421 L17.3231579,16.3118421 C16.9130526,16.3118421 16.5225789,16.1824211 16.1988947,15.9431053 C16.2508947,15.7966316 16.2794737,15.6391053 16.2794737,15.475 L16.2794737,7.44394737 C16.2794737,7.44226316 16.2793684,7.44057895 16.2793684,7.43889474 C16.2793684,7.43805263 16.2794737,7.43726316 16.2794211,7.43642105 C16.2728947,7.09557895 16.3397895,6.76452632 16.4781053,6.45273684 C16.6795263,5.99963158 17.0105789,5.62842105 17.4352632,5.37936842 C17.676,5.23842105 17.9053684,5.07268421 18.1168947,4.88678947 C18.2806316,4.74289474 18.2967368,4.49347368 18.1528421,4.32973684 C18.0089474,4.16594737 17.7594737,4.14989474 17.5957368,4.29378947 C17.4219474,4.44652632 17.2337895,4.58252632 17.0361579,4.69826316 C16.468,5.03147368 16.0255789,5.52726316 15.7565789,6.13236842 C15.7319474,6.18794737 15.7092105,6.24405263 15.6879474,6.30047368 C15.4586316,6.13721053 15.1786316,6.04078947 14.8763158,6.04078947 L12.8873684,6.04078947 C12.1139474,6.04078947 11.4847368,6.67021053 11.4847368,7.44394737 L11.4847368,12.3948947 C10.3131053,11.6156316 8.908,11.1607895 7.39842105,11.1607895 C3.31894737,11.1608421 0,14.4797368 0,18.5592105 C0,18.9892105 0.0372105263,19.4197895 0.110684211,19.8388947 C0.148368421,20.0536316 0.353105263,20.1973158 0.567631579,20.1595789 C0.782368421,20.1219474 0.926,19.9173684 0.888368421,19.7026316 C0.845263158,19.4565789 0.816421053,19.2059474 0.801473684,18.9538947 L1.87615789,18.9538947 C2.09421053,18.9538947 2.27089474,18.7771579 2.27089474,18.5591579 C2.27089474,18.3411579 2.09421053,18.1644211 1.87615789,18.1644211 L0.801578947,18.1644211 C0.855842105,17.2483158 1.09747368,16.3818947 1.48868421,15.6029474 L1.90347368,15.8424211 C1.96568421,15.8783158 2.03352632,15.8953684 2.10047368,15.8953684 C2.23689474,15.8953684 2.36957895,15.8245263 2.44268421,15.6979474 C2.55168421,15.5091579 2.487,15.2677368 2.29821053,15.1587368 L1.88457895,14.9199474 C2.377,14.1763684 3.01563158,13.5377895 3.75921053,13.0453158 L3.998,13.4589474 C4.07110526,13.5855789 4.20378947,13.6563684 4.34021053,13.6563684 C4.40715789,13.6563684 4.47505263,13.6393158 4.53721053,13.6034211 C4.726,13.4944211 4.79068421,13.253 4.68168421,13.0642105 L4.44226316,12.6494737 C5.22121053,12.2582632 6.08763158,12.0166316 7.00368421,11.9623684 L7.00368421,13.0368421 C7.00368421,13.2548421 7.18036842,13.4315789 7.39842105,13.4315789 C7.61647368,13.4315789 7.79315789,13.2548421 7.79315789,13.0368421 L7.79315789,11.9623684 C8.70926316,12.0166316 9.57563158,12.2582632 10.3545789,12.6494737 L10.1151579,13.0641579 C10.0061579,13.2529474 10.0708421,13.4943684 10.2596316,13.6033684 C10.3218421,13.6392632 10.3896842,13.6563158 10.4566316,13.6563158 C10.5930526,13.6563158 10.7257368,13.5854737 10.7988421,13.4588947 L11.0375789,13.0453684 C11.7811579,13.5377895 12.4197368,14.1763684 12.9121579,14.9199474 L12.4986316,15.1586842 C12.3098421,15.2676842 12.2451579,15.5091053 12.3541579,15.6978947 C12.4272632,15.8245263 12.5599474,15.8953158 12.6963684,15.8953158 C12.7633158,15.8953158 12.8312105,15.8782632 12.8933684,15.8423684 L13.3080526,15.6029474 C13.6993158,16.3818947 13.9408947,17.2482632 13.9951579,18.1643684 L12.9207368,18.1643684 C12.7026842,18.1643684 12.526,18.3411053 12.526,18.5591053 C12.526,18.7771053 12.7026842,18.9538421 12.9207368,18.9538421 L13.9951579,18.9538421 C13.9408947,19.8698947 13.6993158,20.7363158 13.3081053,21.5152632 L12.8934211,21.2758421 C12.7044737,21.1667895 12.4631053,21.2315263 12.3542105,21.4203158 C12.2452105,21.6091053 12.3098947,21.8505263 12.4986842,21.9595263 L12.9122632,22.1983158 C12.4198421,22.9418947 11.7812632,23.5805263 11.0376842,24.0729474 L10.7988947,23.6593684 C10.6899474,23.4705263 10.4485263,23.4058947 10.2596842,23.5148947 C10.0708947,23.6238947 10.0062105,23.8653158 10.1152105,24.0541053 L10.3546316,24.4688421 C9.57568421,24.8601053 8.70926316,25.1017368 7.79321053,25.156 L7.79321053,24.0815789 C7.79321053,23.8635789 7.61652632,23.6868421 7.39847368,23.6868421 C7.18042105,23.6868421 7.00373684,23.8635789 7.00373684,24.0815789 L7.00373684,25.1554737 C6.09584211,25.1017368 5.22694737,24.8640526 4.44094737,24.4713158 L4.68173684,24.0542105 C4.79073684,23.8654211 4.72605263,23.624 4.53726316,23.515 C4.34836842,23.4059474 4.107,23.4706316 3.99805263,23.6594737 L3.75673684,24.0774737 C3.01821053,23.5903158 2.37778947,22.9546842 1.88094737,22.2005789 L2.29826316,21.9596316 C2.48705263,21.8506316 2.55173684,21.6092105 2.44273684,21.4204211 C2.33378947,21.2315789 2.09226316,21.1668947 1.90352632,21.2759474 L1.48715789,21.5163158 C1.42405263,21.3900526 1.36384211,21.2616842 1.30831579,21.1303158 C1.22342105,20.9295263 0.991894737,20.8356316 0.791052632,20.9204211 C0.590263158,21.0052632 0.496263158,21.2368947 0.581157895,21.4376842 C1.74163158,24.1834737 4.41757895,25.9576842 7.39842105,25.9576842 C11.4778947,25.9576842 14.7967895,22.6387368 14.7967895,18.5592632 C14.7967895,17.9812105 14.73,17.4184737 14.604,16.8782105 L14.8763158,16.8782105 C15.2000526,16.8782105 15.4982632,16.7677368 15.7359474,16.5828947 C16.1934737,16.9194737 16.7444737,17.1014211 17.3231579,17.1014211 L24.3405263,17.1014211 C25.2680526,17.1014211 26.0226316,16.3465789 26.0226316,15.4187895 C26.0226316,15.2103684 25.9851579,15.0072632 25.9112105,14.8147895 C25.9095789,14.81 25.9077895,14.8052632 25.9058421,14.8005263 C25.8355263,14.6233158 25.7373158,14.4614737 25.6127368,14.3174737 C26.1324737,14.0307368 26.4852632,13.4772632 26.4852632,12.8429474 L26.4852632,12.8429474 Z M14.8763158,16.0886842 L14.3720526,16.0886842 C13.9447368,14.8861053 13.2148421,13.8257895 12.2741579,12.9997368 L12.2741579,7.44394737 C12.2741579,7.10557895 12.5492632,6.83026316 12.8873158,6.83026316 L14.8762632,6.83026316 C15.2146316,6.83026316 15.4898948,7.10557895 15.4898948,7.44394737 L15.4898948,15.475 C15.49,15.8134211 15.2146842,16.0886842 14.8763158,16.0886842 L14.8763158,16.0886842 Z" id="Shape"></path>
                        <path d="M7.39852632,19.8462105 C7.39857895,19.8462105 7.39857895,19.8462105 7.39852632,19.8462105 C8.10815789,19.8461579 8.68542105,19.2688421 8.68542105,18.5592632 L8.68542105,16.281 C8.68542105,15.5713684 8.10810526,14.9940526 7.39847368,14.9940526 C6.68884211,14.9940526 6.11152632,15.5713684 6.11152632,16.281 L6.11152632,17.2722632 L4.14426316,17.2722632 C3.43463158,17.2722632 2.85731579,17.8495789 2.85731579,18.5592632 C2.85731579,19.2688947 3.43463158,19.8462105 4.14426316,19.8462105 L7.39852632,19.8462105 Z M6.901,16.281 C6.901,16.0066842 7.12415789,15.7835263 7.39847368,15.7835263 C7.67278947,15.7835263 7.89594737,16.0066842 7.89594737,16.281 L7.89594737,18.5592632 C7.89594737,18.8335789 7.67278947,19.0567368 7.39847368,19.0567368 C7.12415789,19.0567368 6.901,18.8335789 6.901,18.5592632 L6.901,16.281 Z M3.64678947,18.5592105 C3.64678947,18.2848947 3.86994737,18.0616842 4.14426316,18.0616842 L6.11152632,18.0616842 L6.11152632,18.5592105 C6.11152632,18.7354737 6.14721053,18.9035789 6.21163158,19.0566842 L4.14426316,19.0566842 C3.86994737,19.0567368 3.64678947,18.8335263 3.64678947,18.5592105 Z" id="Shape"></path>
                        <path d="M10.1091579,2.66205263 C10.2651579,3.11705263 10.6952632,3.40905263 11.157,3.40905263 C11.2511053,3.40905263 11.3466316,3.39689474 11.4412632,3.37152632 L11.5436316,3.34410526 L11.5436842,3.34410526 C12.1029474,3.19421053 12.4538947,2.63173684 12.3426842,2.06357895 L12.1217895,0.935210526 C12.0631579,0.635631579 11.881,0.371105263 11.622,0.209526316 C11.363,0.0478421053 11.0452632,0.000526315789 10.7504211,0.0795263158 L10.496,0.147684211 C10.2011579,0.226684211 9.94973684,0.426526316 9.80626316,0.696 C9.66278947,0.965473684 9.63726316,1.28563158 9.73626316,1.57436842 L10.1091579,2.66205263 Z M10.5031053,1.06705263 C10.5447895,0.988842105 10.6148421,0.933157895 10.7004211,0.910263158 L10.9547895,0.842105263 C10.9822632,0.834736842 11.01,0.831105263 11.0375263,0.831105263 C11.0957895,0.831105263 11.1530526,0.847421053 11.2041053,0.879315789 C11.2792632,0.926210526 11.3300526,0.999947368 11.3470526,1.08689474 L11.5679474,2.21526316 C11.5997368,2.37773684 11.4993684,2.53868421 11.3394211,2.58152632 L11.237,2.60894737 C11.0771579,2.65178947 10.9096842,2.56268421 10.856,2.406 L10.4831053,1.31836842 C10.4543684,1.23452632 10.4614737,1.14526316 10.5031053,1.06705263 L10.5031053,1.06705263 Z" id="Shape"></path>
                        <path d="M6.20626316,4.35052632 L7.073,5.10605263 C7.28094737,5.28726316 7.54021053,5.377 7.79905263,5.377 C8.08336842,5.377 8.36715789,5.26863158 8.58147368,5.05436842 L8.65642105,4.97942105 C9.06578947,4.57005263 9.08852632,3.90742105 8.70805263,3.471 L7.95257895,2.60421053 C7.752,2.37405263 7.462,2.23605263 7.15689474,2.22563158 C6.85315789,2.21515789 6.553,2.33294737 6.33710526,2.54884211 L6.15089474,2.73505263 C5.935,2.95094737 5.81721053,3.24968421 5.82768421,3.55478947 C5.83810526,3.85994737 5.97610526,4.14994737 6.20626316,4.35052632 Z M6.70915789,3.29331579 L6.89536842,3.10710526 C6.95536842,3.04710526 7.03426316,3.01447368 7.11857895,3.01447368 C7.12231579,3.01447368 7.12610526,3.01452632 7.12984211,3.01468421 C7.21842105,3.01773684 7.29926316,3.05615789 7.35747368,3.12294737 L8.11294737,3.98973684 C8.22173684,4.11457895 8.21526316,4.30410526 8.09815789,4.42121053 L8.02326316,4.49610526 C7.90610526,4.61326316 7.71668421,4.61968421 7.59173684,4.51089474 L6.725,3.75542105 C6.65815789,3.69721053 6.61973684,3.61636842 6.61668421,3.52778947 C6.61363158,3.43921053 6.64647368,3.35594737 6.70915789,3.29331579 L6.70915789,3.29331579 Z" id="Shape"></path>
                        <path d="M4.53715789,8.51978947 L5.66557895,8.74068421 C5.73642105,8.75452632 5.80705263,8.76121053 5.87689474,8.76121053 C6.36752632,8.76121053 6.81494737,8.43121053 6.94605263,7.94173684 L6.97347368,7.83936842 L6.97347368,7.83931579 C7.12331579,7.28005263 6.81168421,6.69489474 6.26405263,6.50710526 L5.17636842,6.13421053 C4.88752632,6.03521053 4.56747368,6.06073684 4.29794737,6.20426316 C4.02852632,6.34778947 3.82868421,6.59921053 3.74973684,6.89394737 L3.68152632,7.14836842 C3.60247368,7.44326316 3.64984211,7.76089474 3.81147368,8.01994737 C3.97310526,8.27894737 4.23763158,8.46115789 4.53715789,8.51978947 L4.53715789,8.51978947 Z M4.44410526,7.35284211 L4.51236842,7.09836842 C4.53526316,7.01278947 4.59094737,6.94273684 4.66915789,6.90105263 C4.71584211,6.87621053 4.76636842,6.86368421 4.81731579,6.86368421 C4.85178947,6.86368421 4.88652632,6.86942105 4.92036842,6.88105263 L6.00810526,7.25394737 C6.16473684,7.30763158 6.25384211,7.475 6.211,7.63494737 L6.18357895,7.73736842 C6.14073684,7.89731579 5.97973684,7.99768421 5.81731579,7.96589474 L4.68889474,7.745 C4.602,7.728 4.52821053,7.67721053 4.48136842,7.60205263 C4.43436842,7.52684211 4.42115789,7.43836842 4.44410526,7.35284211 Z" id="Shape"></path>
                    </g>
                </g>
                <g id="Group-3" opacity="0.948404948" transform="translate(321.000000, 254.000000) scale(-1, 1) translate(-321.000000, -254.000000) translate(303.000000, 241.000000)">
                    <polygon id="Rectangle" fill="url(#linearGradient-5)" transform="translate(23.650788, 12.842164) rotate(39.000000) translate(-23.650788, -12.842164) " points="16.1729968 3.04949312 31.0925974 3.07696337 31.1285796 22.6348353 16.208979 22.6073651"></polygon>
                    <polygon id="Rectangle" fill="#FFFFFF" transform="translate(12.064760, 12.983957) rotate(39.000000) translate(-12.064760, -12.983957) " points="4.58696846 3.19128637 19.5065691 3.21875662 19.5425512 22.7766286 4.62295062 22.7491583"></polygon>
                    <polygon id="T" fill="#6236FF" fill-rule="nonzero" transform="translate(18.971280, 13.502415) rotate(38.000000) translate(-18.971280, -13.502415) " points="20.5915804 19.8643908 20.7947035 10.4051942 25.1962799 10.3798369 25.1539795 7.17473484 12.7462796 7.14043843 12.7720351 10.2826194 17.6366926 10.3329045 17.4053251 19.7985764"></polygon>
                </g>
            </g>
        </g>
    </g>
</svg>